<svg xmlns="http://www.w3.org/2000/svg" viewBox="0 0 899.88 522.71"><defs><style>.cls-1{fill:#f18d42;}.cls-2{fill:#fdb386;}</style></defs><g id="Layer_2" data-name="Layer 2"><g id="Layer_2-2" data-name="Layer 2"><path class="cls-1" d="M818.46,241.82c7.25-12.16,7.16-28.2.57-40.54-6.8-12.77-20.75-20.83-35.09-21.3a42.42,42.42,0,0,0-8.76.62,32.77,32.77,0,0,0,1.25-7.67c.45-11.08-5.45-20.87-13.94-27.44-.72-.55-1.46-1.06-2.2-1.55a33.71,33.71,0,0,0,4.56-10.5,37.68,37.68,0,0,0-2.56-24.39,12.64,12.64,0,0,0,.32-3.33l-.57-4.24a15.93,15.93,0,0,0-3.21-6c0-.31,0-.62,0-.94-.2-1.46-.39-2.92-.59-4.38A16.49,16.49,0,0,0,754,82.87a17.17,17.17,0,0,0-11.33-4.81,9.35,9.35,0,0,0-1.38-4l-.66-1a9.46,9.46,0,0,0-3.22-3.51,6.32,6.32,0,0,0-2.76-1.61,9.51,9.51,0,0,0-4.82-1.08l-3.32.45-3,1.26A9.46,9.46,0,0,0,720,71.74a6.23,6.23,0,0,0-1.61,2.76,9.51,9.51,0,0,0-1.08,4.82l.45,3.33.26.62a76.33,76.33,0,0,0-19.44,1.89c-15.76,3.7-27,16.31-28.43,31.5a150.14,150.14,0,0,0-42.33,2.85c-21.16,4.32-41.33,14.77-54.29,32.38a63,63,0,0,0-7.07,12.45,56,56,0,0,0-21.1-5.71,45.74,45.74,0,0,0-24.93,6c-12.39,5-20.28,17.24-20.85,30.49a40.6,40.6,0,0,0,.51,14.43,155.86,155.86,0,0,0-24.89,13,35.17,35.17,0,0,0-14.2-3.69,23.34,23.34,0,0,0-7.6,1c0-.18,0-.37,0-.55C453,201,438.59,188.06,421.7,183.74c-25.57-6.54-54,3.08-68.14,25.9-10.93,17.65-11.5,40.53-1.27,58.17a54.5,54.5,0,0,0,7.87,13.45,50.14,50.14,0,0,0,.53,9.48,50.24,50.24,0,0,0-19.44-10.1,30.16,30.16,0,0,0-31.46,10.73,28.55,28.55,0,0,0-4.6,8.52,59.31,59.31,0,0,0-5.13-6.69c8.21-15.44,3.2-36.54-13.65-46.45a46.78,46.78,0,0,0-10.16-4.39c-21.76-13-50.71-6.83-64.72,14.4a52.52,52.52,0,0,0-33.59-11.91,51.36,51.36,0,0,0-43.64,11.88,45.61,45.61,0,0,0-14.56,27.47,37.07,37.07,0,0,0-25.34,4.94,36.08,36.08,0,0,0-16.62,23.91A33.11,33.11,0,0,0,54.63,323.4l-.05.05a19.4,19.4,0,0,0-13.35-12.79,19.77,19.77,0,0,0-10.41,0c-5.06,1.67-5.66,2.43-9.78,5.68a20.25,20.25,0,0,0-5.21,19.72,19.21,19.21,0,0,0,.82,2.35,1.49,1.49,0,0,0-.15.2,7.85,7.85,0,0,0-2,3.46,11.93,11.93,0,0,0-1.35,6.06c.19,1.39.38,2.79.56,4.18l1.59,3.76,2.46,3.18,3.18,2.46,3.75,1.58a14.82,14.82,0,0,0,1.56.39,46.4,46.4,0,0,0,1.77,16c5.57,18.76,22.23,30.75,41.33,32.14,17.6,1.28,35.64-8.74,44.6-23.77.19-.31.34-.63.52-.94a34.64,34.64,0,0,0,46.81,2.52,36.86,36.86,0,0,0,3.95,15.08c-7.79,16.45-1.53,38,12.36,50.25a55.16,55.16,0,0,0,43.62,30.34c12.87,6.42,27.94,7.54,42.22,3.7,9.55,15.07,24.29,29.66,40.93,32.8,15.46,2.91,30.76-1.36,42.16-12.45,10.59-10.29,14.9-24,16.38-38.31a112.7,112.7,0,0,0,.5-16.49c9.62-8.51,17-19.31,20-31.43a31.82,31.82,0,0,0,6.09,9.34,18.09,18.09,0,0,0-1.6,3.84A25.8,25.8,0,0,0,385,449.51q.6,4.55,1.22,9.1a35.14,35.14,0,0,0,3,7.3c.48,1,1,2.07,1.58,3.09l5.4,7a34.46,34.46,0,0,0,15.22,8.87,26.16,26.16,0,0,0,13.75.62,25.73,25.73,0,0,0,12.83-4.1l.1-.06a121.32,121.32,0,0,0,23.1,12.36c19.9,8.21,42.61,9.62,64.42,6.11a25.65,25.65,0,0,0,7.06,12.5c5.06,4.65,12.67,9.16,19.83,8.21,7.8-1,13-1.54,19.76-6a31.85,31.85,0,0,0,12.16-15.26A152.77,152.77,0,0,0,637.64,484a25.46,25.46,0,0,0,6.75,5.27l.22.13a33.9,33.9,0,0,0,6.88,4,26.28,26.28,0,0,0,6.13,2.89,27,27,0,0,0,13.79,3.09l9.52-1.28a27.05,27.05,0,0,0,12.18-6.41,18,18,0,0,0,6.42-6.42,27.05,27.05,0,0,0,6.41-12.18q.48-3.65,1-7.28a48.89,48.89,0,0,0,14.64-6c.46-.28.89-.58,1.33-.87a64.82,64.82,0,0,0,27.87-37.6,46.91,46.91,0,0,0-3.28-31.62c1.4-.17,2.78-.36,4.17-.61,18-3.14,32.11-13.46,41.88-27.27a68.48,68.48,0,0,0,9.48-15c.24-.51.46-1,.68-1.55s.43-.84.63-1.26a57.37,57.37,0,0,0,15.35-32.31c2.53-18.86-3.69-40.38-16.69-54.81A41.55,41.55,0,0,0,818.46,241.82Z"/><path class="cls-1" d="M884.32,83.14a30.74,30.74,0,0,0-7.91-13.57l-1.33-1a14.52,14.52,0,0,0,2.59-2.2,14.26,14.26,0,0,0,3.93-6.11,14.25,14.25,0,0,0,1.63-7.31c-.22-1.68-.45-3.36-.68-5a18.87,18.87,0,0,0-4.88-8.38l-3.84-3a18.94,18.94,0,0,0-9.57-2.6,14.4,14.4,0,0,0-7.32,1.64,14.17,14.17,0,0,0-6.1,3.92,13,13,0,0,0-1,1l-2.2-1.69a34.43,34.43,0,0,0-17.49-4.74,26.16,26.16,0,0,0-13.36,3,26,26,0,0,0-11.15,7.17,26,26,0,0,0-7.17,11.15,26.1,26.1,0,0,0-3,13.36L796.76,78a34.69,34.69,0,0,0,8.92,15.3l7,5.42a34.5,34.5,0,0,0,13.57,4.49,30.67,30.67,0,0,0,6.64,9.91l6.23,4.81a30.67,30.67,0,0,0,15.53,4.2,23.24,23.24,0,0,0,11.85-2.65,23.09,23.09,0,0,0,9.9-6.36,23.09,23.09,0,0,0,6.36-9.9,23.15,23.15,0,0,0,2.65-11.86C885.05,88.6,884.69,85.87,884.32,83.14Z"/><path class="cls-1" d="M885.86,0c-18.69,0-18.72,29,0,29S904.57,0,885.86,0Z"/><path class="cls-2" d="M799.23,211.61a19.21,19.21,0,0,0-10.27-7.9,17.25,17.25,0,0,0-9.13,0,17.52,17.52,0,0,0-12,12c-.27.87-.54,1.74-.8,2.61-.2,1.43-.39,2.86-.58,4.29.19,1.43.38,2.86.58,4.29l1.62,3.86a12.25,12.25,0,0,0,4.16,4.53,8,8,0,0,0,3.56,2.07,8.11,8.11,0,0,0,4.07,1.11,8.25,8.25,0,0,0,4.3,0,12.08,12.08,0,0,0,6-1.92l2.34-1.44a17.42,17.42,0,0,0,8.51-14.84A17.05,17.05,0,0,0,799.23,211.61Z"/><path class="cls-2" d="M864.93,68.85a18.52,18.52,0,0,0-9.2-16,13.86,13.86,0,0,0-6.9-2.21,14.05,14.05,0,0,0-7.41.34A18.82,18.82,0,0,0,836.66,53a15.14,15.14,0,0,0-9.43-3.15l-4.28.58a16,16,0,0,0-7.1,4.14l-2.36,2.17a14.16,14.16,0,0,0-1.68,2,8,8,0,0,0-2.09,3.58,5.78,5.78,0,0,0-.86,2.11,25.88,25.88,0,0,0-.59,4.55,34.41,34.41,0,0,0,.61,4.51,15.47,15.47,0,0,0,10.78,10.78,35.86,35.86,0,0,0,4.37.6l.27,0,4.26-.57.32-.07,3.88-1.64.31-.23c.28.32.56.64.85,1l3.63,2.81,4.3,1.81,4.77.64a13.43,13.43,0,0,0,6.93-1.55,8.84,8.84,0,0,0,4-2.31,9,9,0,0,0,3.23-3.22,9,9,0,0,0,2.31-4,13.3,13.3,0,0,0,1.5-5.22A18,18,0,0,0,864.93,68.85Z"/><path class="cls-2" d="M776.08,267.32a59.08,59.08,0,0,0-49.4-14.16,46.57,46.57,0,0,0-7.87,2.15,50.72,50.72,0,0,0-12.27,3.43c-19.09,8.06-28.84,27.87-25,48,.18,1,.4,1.92.66,2.87a33,33,0,0,0-5,5.27,48,48,0,0,0-7.07-2.71,42.76,42.76,0,0,0-7.91-1.46,74.05,74.05,0,0,0,2.09-42.94,67.68,67.68,0,0,0-5.85-15,46.35,46.35,0,0,0,29.87-15.31,25.35,25.35,0,0,0,23.11-6.84c5.43-5.19,8.35-12.78,10.71-20.28a26.38,26.38,0,0,0,2.89-.69,23.58,23.58,0,0,0,4.59.15c9.57-.7,19.38-6.46,21.67-16.5a24.94,24.94,0,0,0-2.77-18.11c.1-8.77-2.88-17.4-9.9-23.54a29.81,29.81,0,0,0-9.23-5.59,16.63,16.63,0,0,0-13.8-5.59c-15.47,1.15-30.38,12.14-33.77,27.31-16.19-23.21-49.66-33.21-72.48-11.09a46.25,46.25,0,0,0-13,23.58,53.63,53.63,0,0,0-4.8,15.87,29.6,29.6,0,0,0-15.17,5.75,26.91,26.91,0,0,0-4.36,4.24c-30.56,2.05-54.62,25.08-61.68,54.51-.09,0-.17-.09-.26-.12a21.72,21.72,0,0,0-10.86-1.55c-13.63-5.67-29.63-5.74-42.61,1.75a40.48,40.48,0,0,0-12.74,11.49,18.39,18.39,0,0,0-15.2,4c-.37.3-.69.63-1,.94a92.53,92.53,0,0,0-7-20.94c-3.58-7.63-16-9-21.41-2.76a32.91,32.91,0,0,0-.32,43,71.48,71.48,0,0,1-11.29,14.39,53.91,53.91,0,0,0-33.17-2.37c-6.43,1.49-10.3,6.89-11.68,12.86-6.95-3.49-16.11-3.13-21,3.13a38,38,0,0,0-2.76,4,14.52,14.52,0,0,0-4.25-2c.05-1.88.06-3.75,0-5.62-.47-14-15.81-24-28.45-16.33a92.59,92.59,0,0,0-16.13,12.47,90.54,90.54,0,0,0,.11-35.93c-2.18-11.07-17-16.49-26.11-10.62-.62.39-1.22.8-1.83,1.2a19.63,19.63,0,0,0-11.71-1.45,40.5,40.5,0,0,0-23,13,35.54,35.54,0,0,0-3.84,1.84,17,17,0,0,0-2-3.41,27.45,27.45,0,0,0-6.28-12c-9.28-10.13-23.25-10.74-34.53-5.23-.56.05-1.12.1-1.68.18-12.51,1.68-22,9.75-26.85,21.22a33.24,33.24,0,0,0-1.66,5.15,44.17,44.17,0,0,0-27,8.8,40,40,0,0,0-15.46,32.63,36.47,36.47,0,0,0-19.79-2.09c-4.17.77-7,3.55-8.87,7-10.37.83-17.4,15.15-5.64,22.47l1.51.93L55,363.83C53.63,375.67,67,381,76.36,378c10.63,2.9,22.74-3.12,27.2-13.62,9.53,9.22,22.16,15.39,35.66,14.88,20.23-.78,38.4-14.1,44.11-33.76a2.17,2.17,0,0,0,.07-.24,16.76,16.76,0,0,0,6.2,7.17,33.08,33.08,0,0,0,3.31,8.84c.27,17.89,8.08,36.74,27,41.67a41.47,41.47,0,0,0,5,1c5.92,6.55,14.38,10.21,25.25,8.43a27.83,27.83,0,0,0,2.47,2.51,26.41,26.41,0,0,0,17.77,7c7.47,8.23,19.24,10.71,30.08,7,26.82-9.25,44.51-34.19,50.38-61.31,12.8-3.16,19.5-14.89,22.49-27.61a23.67,23.67,0,0,1,7.87,3.44c6.25,4.07,13.79,1.88,19-2.46a95.18,95.18,0,0,0,8.35-7.8,9.36,9.36,0,0,0,1.08.19,23.51,23.51,0,0,1,.64,2.76c1.4,6.86,9,9.84,15.17,8.61a34.94,34.94,0,0,0,11-4.2c.29,1.42.61,2.83,1,4.23,6.92,26.18,29.81,45.89,57.32,46.38,18.64.33,32.55-8.14,41.67-20.9,2.18-.63,4.33-1.38,6.46-2.2C559.21,381.47,582.4,386,601.56,373c.87-.59,1.71-1.21,2.55-1.85a63.07,63.07,0,0,0,21.09-10.86c1.36-1.05,2.71-2.15,4-3.27.39-.25.77-.52,1.15-.78a36.83,36.83,0,0,0,4.88,5.91,41.92,41.92,0,0,0-8,46.87,33.1,33.1,0,0,0-5.53,3.3,24,24,0,0,0-9.06,6.07c-.65.14-1.3.3-1.92.47a22.54,22.54,0,0,0-3.84,1.47,7,7,0,0,0-1.7-2.49,8.5,8.5,0,0,0-12,0,8.64,8.64,0,0,0-2.49,6,10.88,10.88,0,0,0,.49,2.7,15.31,15.31,0,0,0-7.27-2.2l-2.22-.14c-3.36-.21-7.32,1.65-9.68,4a21.78,21.78,0,0,0-5-9.56c-10.21-11.54-30.28-15-44.92-11.32-9.26,2.3-14.19,11.18-13.53,19.75a82.65,82.65,0,0,0-8.47,2.33c-1.83.64-4.33,2-5.49,3.85a6.19,6.19,0,0,0-2.61-3.07l-1.78-1.06a7.53,7.53,0,1,0,0,13L492,441a6.15,6.15,0,0,0,2.67-3.23c3.41,7,14.14,5.52,19.94,2.3a4.56,4.56,0,0,0,.39-.27c10.92,10.12,29.16,16.36,43.27,11.94a20.25,20.25,0,0,0,10.91-8,11.56,11.56,0,0,0,2.74,3.95,16.39,16.39,0,0,0,5.8,3.51,9.07,9.07,0,0,0,5.18,2.46,10.23,10.23,0,0,0,4.8-.51,16.84,16.84,0,0,0,9.86,5.36,24,24,0,0,0,3.85.32,22.78,22.78,0,0,0,4.11,3.05,26.37,26.37,0,0,0,6.56,2.8,22.2,22.2,0,0,0,11.72,0,16.55,16.55,0,0,0,3.15-1.11c.19,0,.37.09.56.12l6.51.88c.52,0,.88-.07,1.14-.11,6.43,1.34,13.55.54,19.62-1.21a38.6,38.6,0,0,0,14.72-8.52,9.37,9.37,0,0,0,2.54-2.48c.23-.29.43-.54.65-.8a29.24,29.24,0,0,0,10.58-16.85c.34-.36.69-.7,1-1.08,1.54-1.81,2.94-3.68,4.3-5.56a42.36,42.36,0,0,0,20.24-21.47,39.12,39.12,0,0,0-1-32A43.8,43.8,0,0,0,720.88,373a30.74,30.74,0,0,0,20.24-19.08c23.11,6,47.88,1.24,58.52-24C810.47,304.28,797,280.94,776.08,267.32Z"/><path class="cls-1" d="M109.68,128.69a10.12,10.12,0,0,0-3.22.5,13.4,13.4,0,0,0-6.67-1.78,10.92,10.92,0,0,0-2.69.24A22.88,22.88,0,0,0,91.66,119L87,115.41a23,23,0,0,0-11.64-3.15,17.3,17.3,0,0,0-8.88,2,17.09,17.09,0,0,0-5.4,2.9,17.09,17.09,0,0,0-3.46-5l-3.46-2.67a17,17,0,0,0-8.62-2.33A12.85,12.85,0,0,0,39,108.61a12.69,12.69,0,0,0-5.49,3.53,12.83,12.83,0,0,0-3.24,4.74,15,15,0,0,0-9.38-3.42,11.1,11.1,0,0,0-5.63,1.24l-.43,0a12.84,12.84,0,0,0-8.28,2.76C-.41,119-1.82,128,2.31,132.59a12.26,12.26,0,0,0,9.37,8.92,6.32,6.32,0,0,0,0,.87c.15,1.16.31,2.31.46,3.47a13.08,13.08,0,0,0,3.35,5.75l2.64,2a12.86,12.86,0,0,0,6.57,1.78H25a16.38,16.38,0,0,0,1.87,2.32l.86.78A12.22,12.22,0,0,0,33,161.87a12.68,12.68,0,0,0,2.25.89,24,24,0,0,0,.76,4.47l2.34,5.55a17.59,17.59,0,0,0,6,6.51,17.39,17.39,0,0,0,7.89,4.15l6.17.83a17.39,17.39,0,0,0,8.94-2,17.26,17.26,0,0,0,7.47-4.8,17.26,17.26,0,0,0,4.8-7.47,17.3,17.3,0,0,0,1.69-4.82A12.68,12.68,0,0,0,89.49,168c8.86,0,13.18-7,13-13.92a10.11,10.11,0,0,0,2.51-.92,12.57,12.57,0,0,0,6.25-5.22C122.08,146.36,121.59,128.69,109.68,128.69Z"/><path class="cls-2" d="M108.15,134.83a11,11,0,0,0-2.84-4.87l-.7-.62-2.41-1.86-2.85-1.21a9.17,9.17,0,0,0-4.76-.21,5.88,5.88,0,0,0-3,.82A5.89,5.89,0,0,0,89,128.41a5.6,5.6,0,0,0-1.12.85c-.17-.32-.34-.64-.54-.95a15.07,15.07,0,0,0-2.75-3.23,14.36,14.36,0,0,0-5-5c-3.25-1.72-7.38-2.71-11-1.44l-1.72.61L65,120c-1.63-7.52-8.25-14.7-16.52-13.91a24.84,24.84,0,0,0-18.18,10.52l-.3.29a15,15,0,0,0-2.59,2.87c-.55-.26-1.09-.52-1.62-.75-7.15-3-16.52,3.64-11.61,11.61a20.76,20.76,0,0,0,12.23,9.18,27.1,27.1,0,0,0,12.64,16.28c8,4.51,20.7,5.17,27.07-2.61a21.58,21.58,0,0,0,3.11-5.07q.93.41,2,.78c3.27,1.23,8.06.27,11-1.44a14.85,14.85,0,0,0,4-3.56c.51.65,1,1.31,1.52,2l2.41,1.86,2.85,1.2a9,9,0,0,0,4.75.22,6,6,0,0,0,3-.82,8.94,8.94,0,0,0,3.84-2.46l.7-.62a8.21,8.21,0,0,0,2.28-3.56,8.28,8.28,0,0,0,1-4.25C108.41,136.79,108.28,135.81,108.15,134.83Z"/></g></g></svg>