<svg xmlns="http://www.w3.org/2000/svg" viewBox="0 0 739.91 216.05"><defs><style>.cls-1{fill:#f18d42;}.cls-2{fill:#fdb386;}</style></defs><g id="Layer_2" data-name="Layer 2"><g id="Layer_2-2" data-name="Layer 2"><path class="cls-1" d="M233.88,147.68a10.52,10.52,0,0,0-2.71-4.66L229,141.38a10.4,10.4,0,0,0-5.33-1.44,7.89,7.89,0,0,0-4.06.9,8.41,8.41,0,0,0-1.37.61l-.43-.33A15.48,15.48,0,0,0,210,139a11.71,11.71,0,0,0-6,1.34,10.2,10.2,0,0,0-1,.41,19.58,19.58,0,0,0-4.71-5.1,23.64,23.64,0,0,0-3-2,13.8,13.8,0,0,0-1.05-2.19,17.82,17.82,0,0,0-3-4l-.13-.1a13.44,13.44,0,0,0-3.43-2.65,13,13,0,0,0-4.15-1.75,17.48,17.48,0,0,0-4.7-.64h0a13.67,13.67,0,0,0-4.67.62,13.27,13.27,0,0,0-6,3.15,13,13,0,0,0-3.87,3.88,18.6,18.6,0,0,0-7.62-1.6,16.56,16.56,0,0,0-1.86.1l-1.67-1.29a19,19,0,0,0-9.65-2.61,14.36,14.36,0,0,0-7.37,1.65,17.13,17.13,0,0,0-10.11,10.11,14.36,14.36,0,0,0-1.65,7.37l.3,2.24c-1.37,1.16-2.7,2.4-4,3.71-.53,0-1.06-.06-1.6-.05A21.55,21.55,0,0,0,106.53,154c-.81-.38-1.64-.73-2.47-1,1.88-4.14,2.62-10.21,1.12-14.11-2.06-5.32-4.45-9.48-9-13-4.18-3.23-10.07-5.4-15.45-4.94-6.87.59-12.32,2.79-16.61,8.34a19.73,19.73,0,0,0-3.85,8.18h0a13.26,13.26,0,0,0-7-.31,13,13,0,0,0-6.52,2.08,13.16,13.16,0,0,0-4.91,4.51,12.77,12.77,0,0,0-2.46,3.92,10,10,0,0,0-1.22-.35,22.38,22.38,0,0,0-10.07,0l-3.53,1.49a11.42,11.42,0,0,0-2.57,1.9A9.55,9.55,0,0,0,8.3,149.48a6.91,6.91,0,0,0-2.1-.31c-8.26,0-8.27,12.84,0,12.84l.39,0A9.39,9.39,0,0,0,12,166c.18.05.36.07.54.11,0,.1,0,.2,0,.29l.36,2.69a10.16,10.16,0,0,0,2.6,4.47l2.05,1.58a10.16,10.16,0,0,0,5.1,1.38,7.68,7.68,0,0,0,3.9-.87l.33-.13a7.11,7.11,0,0,0,1.39.26A11.3,11.3,0,0,0,30,176,7.52,7.52,0,0,0,34,176a11,11,0,0,0,3.56-.79h0a13.5,13.5,0,0,0,7-3.77l1.78-2.31c.34.2.68.4,1,.59.69,3.48,3.21,6.62,7,6.6a18.17,18.17,0,0,0,7.88,2.27c1.1.1,2.17.1,3.27.13.43,0,.85,0,1.27,0a8.85,8.85,0,0,0,1,.35,9.69,9.69,0,0,0,.47,3,14.49,14.49,0,0,0,6.51,8.46c6.3,3.33,13.84,2.09,18.27-3.65a14.89,14.89,0,0,0,1.55-2.49,16.12,16.12,0,0,0,1.5-1.37c.7.58,1.39,1.17,2.08,1.76a17.59,17.59,0,0,0,7.31,3.84,23.73,23.73,0,0,0,6.88,20.52c10.71,10.63,28.24,8.09,38.15-2.14l.48-.52a26.44,26.44,0,0,0,11.35-15.14c0-.08,0-.15,0-.23a11.38,11.38,0,0,0,2-1.21,65.68,65.68,0,0,0,6.58-5.72,19.85,19.85,0,0,0,9.28-.37,28.27,28.27,0,0,0,7.85-3.64,15.42,15.42,0,0,0,4.64.62,12.51,12.51,0,0,0,17.58-4,12.15,12.15,0,0,0,1.77-6.9,11.52,11.52,0,0,0,4-1.24,14,14,0,0,0,8-7.66,7.8,7.8,0,0,0,3.8-.9,9.49,9.49,0,0,0,5.57-5.57,8,8,0,0,0,.91-4.06C234.13,149.54,234,148.61,233.88,147.68Z"/><path class="cls-2" d="M49.84,149.89a5.78,5.78,0,0,0-5.31-.15,4.28,4.28,0,0,0-1.25-.53,6.16,6.16,0,0,0-4,.52,5.18,5.18,0,0,0-1.27.77,8.13,8.13,0,0,0-6.75-1.41l-.07,0a7.69,7.69,0,0,0-3.37.21c-.13,0-.26.08-.38.12a7.14,7.14,0,0,0-.78.15,9.36,9.36,0,0,0-5.23,3.66c-.39,0-.78,0-1.17,0l-1.08,0a1.47,1.47,0,0,0-.35,0,3.34,3.34,0,0,0-5.62-1.95c-1.22,1.09-3.48,4-1.29,5.36a3.62,3.62,0,0,0,.77.37,6.11,6.11,0,0,0,2.3,2.47,9,9,0,0,0,3.65,1.07l.67.1v.1c.35,4.23,3.28,7.68,7.76,7.75A11,11,0,0,0,32.69,167,12,12,0,0,0,40,161.09a5.84,5.84,0,0,0,6.07-1.23,6.44,6.44,0,0,0,1.12-1.35,5.75,5.75,0,0,0,4.49-4.1A4.14,4.14,0,0,0,49.84,149.89Z"/><path class="cls-2" d="M89,131.29A5.34,5.34,0,0,0,84.9,133,10.23,10.23,0,0,0,76,129.74a9.42,9.42,0,0,0-1.2.23,7.56,7.56,0,0,0-1.72-.72A8.41,8.41,0,0,0,63.87,133a14.87,14.87,0,0,0-2,10.69l-.25.7a3.64,3.64,0,0,0-.82-1.1l-1-.75A3.6,3.6,0,0,0,58,142a3.66,3.66,0,0,0-1.91.09,4.81,4.81,0,0,0-2.87,2.2c-.16.39-.33.77-.49,1.15a5.42,5.42,0,0,0,.49,3.7l.75,1a3.62,3.62,0,0,0,1.4.93c-.9,4.95,4.58,10.74,10.21,8.39a6.29,6.29,0,0,0,2.66-2.08A11.54,11.54,0,0,0,70.47,159c6.46,3.65,13.54-.12,17-5.92a17.49,17.49,0,0,0,2.61-10.29C96.42,141.69,96.07,131.29,89,131.29Z"/><path class="cls-2" d="M192.06,145a10.84,10.84,0,0,0-5,1.36,14.85,14.85,0,0,0-.1-8.51c-1.69-4.72-6.17-6.34-10.62-4.32-3.62,1.64-6,5.21-7.74,8.79-1.6-2.9-5.56-4.42-8.46-1.37-.73.78-1.42,1.56-2.09,2.36a11.64,11.64,0,0,0-3.17-6,11.49,11.49,0,0,0-4.43-2.77c-3.82-2.76-9.42-2.94-12.91.85a23.91,23.91,0,0,0-3.94,5.86c-2.24,2.54-4.39,5.18-5.36,8.5a13.78,13.78,0,0,0-.53,3.57,14.08,14.08,0,0,0-2.1,1.35,19.59,19.59,0,0,0-2.51,2.31c-.38.35-.76.72-1.12,1.1s-.65.71-1,1.08a9.09,9.09,0,0,0-1,.18,6.31,6.31,0,0,0-7.28-.69,12.42,12.42,0,0,0-1.15.73,7.31,7.31,0,0,0-3.75-1.67,6.56,6.56,0,0,0-5.64,1.85l-.13.14-.94.48-.19.06a7.56,7.56,0,0,0-2.36,1.17,2.44,2.44,0,0,0,.06-.26A5.55,5.55,0,0,0,99.2,157a5.26,5.26,0,0,0-3.66-3.65,9.57,9.57,0,0,0-1.63-.28,7.24,7.24,0,0,0-1.33-.14A8.3,8.3,0,0,0,88.76,154a6.94,6.94,0,0,0-3.67,6,7.77,7.77,0,0,0,1.07,3.87,6.46,6.46,0,0,0,3.8,2.92l1.69.23a6.29,6.29,0,0,0,2.61-.57,5.84,5.84,0,0,0,1-.46,6.68,6.68,0,0,0,1-.69,6.23,6.23,0,0,0,1.6,4.93,7.41,7.41,0,0,0,5.87,2.11,10.1,10.1,0,0,0,1.38,1.07,5.67,5.67,0,0,0,1.34.64,12.57,12.57,0,0,0,3.33,6.56,10.43,10.43,0,0,0,5.06,2.79,31.71,31.71,0,0,0-.18,6.24,9,9,0,0,0,15.1,6.25A51.38,51.38,0,0,0,145,172a10.66,10.66,0,0,0,.87.75,9.34,9.34,0,0,0,10.29.72,30.82,30.82,0,0,0,9.63-8.79c2.86,2.63,7.74,3.47,10.83,1.3a16.06,16.06,0,0,0,4.6-5,7,7,0,0,0,9.59,2.76,8.58,8.58,0,0,0,3.85-4.11l.22-.52A1.15,1.15,0,0,1,195,159c.23-.41.43-.84.67-1.24a15.78,15.78,0,0,0,2.23-6.9C198.12,147.74,195,144.92,192.06,145Z"/><path class="cls-2" d="M222.36,153c-.05-.18-.12-.35-.18-.52a6,6,0,0,0-3.4-3.81,5.68,5.68,0,0,0-5.24.29,8,8,0,0,0-2.77,2.72,6.16,6.16,0,0,0-.54,1.34,5.58,5.58,0,0,0-.28-.67c0-.12,0-.24-.07-.36a3.85,3.85,0,0,0-1-1.69,5,5,0,0,0-2.07-1.17,5.52,5.52,0,0,0-2.71,0,5.14,5.14,0,0,0-3.25,2.4,4.84,4.84,0,0,0-.73,1.79,5.36,5.36,0,0,0,0,2.81,5.23,5.23,0,0,0,1.36,2.34,5.34,5.34,0,0,0,2.33,1.36,4,4,0,0,0,2.11.09,3.89,3.89,0,0,0,2-.63,5.37,5.37,0,0,0,1.9-1.89c.08-.16.16-.31.23-.47,0,.13,0,.26.05.39a4.6,4.6,0,0,0,1.09,2.07,5.8,5.8,0,0,0,3.16,2.18,7.09,7.09,0,0,0,3.24,0,6.33,6.33,0,0,0,3.63-2.79l.37-.53a5.59,5.59,0,0,0,.87-2.53A5.07,5.07,0,0,0,222.36,153Z"/><path class="cls-1" d="M736.52,71.8a6.66,6.66,0,0,0-4.14.53,8,8,0,0,0-1.54,1.08,7.66,7.66,0,0,0-.9-1,11.59,11.59,0,0,0-7.89-3.27,8.93,8.93,0,0,0-1.73.12,14.41,14.41,0,0,0-5.5-4.69,38.74,38.74,0,0,0-5.48-2.34,21.27,21.27,0,0,0-8.59-.32,16.27,16.27,0,0,0,.34-4c-.25-1.84-.5-3.67-.74-5.51A20.78,20.78,0,0,0,695,43.28L690.81,40a20.63,20.63,0,0,0-10.48-2.83,15.63,15.63,0,0,0-8,1.79,15.45,15.45,0,0,0-6.68,4.29A15.58,15.58,0,0,0,661.36,50a15.34,15.34,0,0,0-1.09,2.74,27,27,0,0,0-3.77.27A19.82,19.82,0,0,0,647.56,56c-.26.17-.49.35-.73.53a15.5,15.5,0,0,0-20.54-.35c-.37-.4-.73-.81-1.14-1.2-7.15-7.93-18.76-10.21-28.81-7.77a34.05,34.05,0,0,0-8.72,3.51,35.16,35.16,0,0,0-6.39,4.85L580,57.15A47.52,47.52,0,0,0,547.14,47c-2.53.19-5.1.49-7.68.91a27.77,27.77,0,0,0-2.61-2,11.42,11.42,0,0,0,.58-4.1l-.54-4.06A15.29,15.29,0,0,0,533,31c-1-.8-2.06-1.6-3.1-2.39a15,15,0,0,0-5.67-1.95c-.41-.74-.84-1.47-1.31-2.18A36.61,36.61,0,0,0,496.17.88a42.66,42.66,0,0,0-33.11,6.87,34.2,34.2,0,0,0-13.68,14.92c-10.61.17-20.88,4.73-28.89,11.84a32.73,32.73,0,0,0-9.92,16.88,18.42,18.42,0,0,0-7.24,2.09,18.55,18.55,0,0,0-8,5.11,18.76,18.76,0,0,0-4.83,7.24,35.22,35.22,0,0,0-8.45-3.59,18.52,18.52,0,0,0-4.15-6.43l-3.74-2.89a18.42,18.42,0,0,0-9.33-2.52A13.89,13.89,0,0,0,357.73,52a14,14,0,0,0-6,3.82,13.84,13.84,0,0,0-3.82,6,13.83,13.83,0,0,0-1.59,7.12c0,.14,0,.28.05.42a7.58,7.58,0,0,0-3.47.06,10.66,10.66,0,0,0-5.35,1.68,7.71,7.71,0,0,0-2.51,1.75,20.91,20.91,0,0,0-7.18-7.06c-3.76-2.85-8.44-3.06-12.93-3.54-.64-.11-1.28-.21-1.92-.34-4.68-1-10.06-.91-14.47,1.3-.4-.47-.82-.94-1.26-1.38L292.38,58a24.35,24.35,0,0,0-10.22-3.23c-2.37-4.3-6.75-7.45-13.16-7.45-9.06,0-14.07,6.28-15,13.24l-1.87-.25-4.81.64a13.63,13.63,0,0,0-6.16,3.24,13.6,13.6,0,0,0-4.26,4.44,11.08,11.08,0,0,0-7-2.25,12.34,12.34,0,0,0-3.56.51,16.15,16.15,0,0,0-2.54-3.33l-3.18-2.45a15.59,15.59,0,0,0-7.94-2.15,11.93,11.93,0,0,0-6.06,1.35,11.62,11.62,0,0,0-4.32,2.55,9.94,9.94,0,0,0-2.95-.45,10.8,10.8,0,0,0-7.42,3.08,7.85,7.85,0,0,0-2.17,3.37,7.81,7.81,0,0,0-.9,4,10.58,10.58,0,0,0,3.07,7.42,10.88,10.88,0,0,0,7.42,3.07h.26a15.5,15.5,0,0,0,2,2.43l3.18,2.46a15.72,15.72,0,0,0,7.94,2.15,18.93,18.93,0,0,0,9.85-3.43,10.92,10.92,0,0,0,7.37,2.59,11.64,11.64,0,0,0,5.3-1.2,19.14,19.14,0,0,0,4.6,6.17l.2.21,3.16,2.44A11.73,11.73,0,0,0,249,99a7.93,7.93,0,0,0,4.16,0A11.65,11.65,0,0,0,258,97.67a28.05,28.05,0,0,0,2.62-1.16,15.71,15.71,0,0,0,1.46-.88c.22.24.43.48.67.72l4.94,3.82a24.41,24.41,0,0,0,12.13,3.33l.06.32a25.12,25.12,0,0,0,7,14.58,30.3,30.3,0,0,0,14.29,8.14,19.58,19.58,0,0,0,4.33,1.55l6.75.91a25.28,25.28,0,0,0,12.8-3.47c7-3.25,12.61-10.7,14.71-18.11a30.12,30.12,0,0,0,2-9.93,10,10,0,0,0,4.22,0,6.77,6.77,0,0,0,2.49-.48,8.85,8.85,0,0,0,2.14,1.63c.37.2,2.46,1.1,2.86,1.21s2.81.42,3.13.42l3-.41a6.77,6.77,0,0,0,2.75-1.15,12.07,12.07,0,0,0,2.35-1.81,8.51,8.51,0,0,0,2.23-3.37h.35c-.25,0,.77.17,1.69.33l.15.1,1,.8c1.16,1.29,2.48,2.51,3.71,3.75,4.4,4.41,9.24,8.36,15.3,10.21,6.79,2.08,13.42,1.21,19.8-1.62a26.61,26.61,0,0,0,3.75-1.74l1.25-.37,1.18-.23,2.51-.22c4.6-.4,9.72-.47,14.78-.92a39.07,39.07,0,0,0,14.17,7.25c6,1.62,13.41,1.25,19.36-.25l.16,0c10.45-.76,18.76-6.26,24.56-15a24,24,0,0,0,3.17-8c1.42.08,2.83.12,4.22.09.16,10.52,4.94,20.22,12.35,27.55a31.73,31.73,0,0,0,4.59,5.61c12.74,12.28,32.47,13,48.6,7.9a48.82,48.82,0,0,0,25.19-18,6.72,6.72,0,0,0,4.38.08l.18-.06a7.91,7.91,0,0,0,5.49-5.49v0a31,31,0,0,0,4.09.11c0,.17,0,.34,0,.52a9.2,9.2,0,0,0,2.67,6.43,9.44,9.44,0,0,0,6.44,2.67,9.34,9.34,0,0,0,6.43-2.67,6.73,6.73,0,0,0,1.88-2.92,7,7,0,0,0,.79-3.51,11.2,11.2,0,0,0-.74-3.56,16.24,16.24,0,0,0,7.35,1.79,18.08,18.08,0,0,0,11.51-4.77A12.24,12.24,0,0,0,642.57,94a12.23,12.23,0,0,0,1.4-6.28l0-.32a15.6,15.6,0,0,0,12.79,2c.33-.1.67-.19,1-.26,1.4-.14,2.62-.31,3.75-.52l.44-.06-.42,0A26.81,26.81,0,0,0,666,87.33l-.58.25.55-.22.21-.09c1-.36,2-.79,3.05-1.29l.92-.38a13.26,13.26,0,0,0,4.9-4.5,20.4,20.4,0,0,0,1.74-2.7,20.71,20.71,0,0,0,3.54.31c.62,0,1.23,0,1.84,0a12.3,12.3,0,0,0,1.86,7c.12.19.25.35.37.52,1.91,7,8.4,12.76,15.25,14.41a19.86,19.86,0,0,0,22.07-9.12l.33,0a12.38,12.38,0,0,0,7.89-3.27,8.44,8.44,0,0,0,2.3-3.59,8.36,8.36,0,0,0,1-4.3,3.88,3.88,0,0,0,0-.48,7.67,7.67,0,0,0,1.27.07,6.61,6.61,0,0,0,3.84-1.62A3.5,3.5,0,0,0,736.52,71.8Z"/><path class="cls-2" d="M337.78,84.42a7.29,7.29,0,0,0-4.89-4.89,6.66,6.66,0,0,0-1.89-.22,19.87,19.87,0,0,0-3-5.73c-3.9-5.13-8.43-8.75-15.25-8.75a18.74,18.74,0,0,0-12.53,5l-.59.25a8.49,8.49,0,0,0-4.88.27c-1.1-.53-2.22-1-3.36-1.48A36.89,36.89,0,0,0,284.54,67c-1.91-.35-3.85-.53-5.75-.91l-.19,0a9,9,0,0,0-3.49-4c-4.47-2.58-8.69-2.7-13.25-.17A9.77,9.77,0,0,0,258,66a6.81,6.81,0,0,0-1.27.73c-2,1.5-2.35,3.23-3.39,5.3-.81,1.6-.66,2.23-2.79,2.88a17.78,17.78,0,0,1-5.3.25,75.42,75.42,0,0,1-9.49-1.29c-3.19-.47-6.36-.23-9.62-.59a11.26,11.26,0,0,0-4.33-.14c-2.34.56-8.36,6.07-10,1a.24.24,0,0,0-.47.13c.63,2.44,2.8,3.1,5.16,2.58-.27.06,3.25-1.46,2.91-1.39l9.26,1.23A14.7,14.7,0,0,1,231,79.09c2.24,1.78,5.11,2.49,7.91,3.19,5.57,1.4,12.88,2.79,18.25,0,.66-.35,3.27-2.28,3.72-3.32a20.12,20.12,0,0,0,9.41,5.52c4.23,1.15,8.75.78,12.92,2.12a51.62,51.62,0,0,1,6.18,2.78A20.54,20.54,0,0,0,290.51,94a19.32,19.32,0,0,0,5.42,9.41,21.3,21.3,0,0,0,35.44-10.13,6.73,6.73,0,0,0,3.9-1.48A7,7,0,0,0,337.78,84.42Z"/><path class="cls-2" d="M661.21,57.15a31.18,31.18,0,0,0-4.57-1.9,13.31,13.31,0,0,0-7,0,15.74,15.74,0,0,0-1.55.54,22.17,22.17,0,0,0-39.57,2.44h-.56L606.07,58a12.24,12.24,0,0,0-7.57,1.91L596,61.84a9.34,9.34,0,0,0-2.55,4,6.22,6.22,0,0,0-.82,2.64,6.5,6.5,0,0,0-1.73-1.12c-1.74-.74-3.12-.22-4.71.49.85-.38-.41.16-.84.36a6.47,6.47,0,0,0-.82.44c-.13.08-.24.18-.37.26h-.21c-.35,0-.68,0-1,.09a24.21,24.21,0,0,0-7.34-5.68,31.67,31.67,0,0,0-14.17-8.41,25.51,25.51,0,0,0-31.43,2c-.07-.26-.14-.54-.23-.83A17.58,17.58,0,0,0,528.1,52a17.11,17.11,0,0,0-10.39-8.11,15.84,15.84,0,0,0-5.07-.48,27.89,27.89,0,0,0-.88-8.56,22.84,22.84,0,0,0-1.95-4.92,29.14,29.14,0,0,0-12.08-13.41c-14-8.13-31.7-2.43-39.18,11a28.33,28.33,0,0,0-7.62,14c-13.21-6.05-29.49,3.43-29.28,18.76,0,.27,0,.54.05.82a14.38,14.38,0,0,0-3.41-1.75A13.21,13.21,0,0,0,405.51,61c-4.18,1.79-8.17,4.22-9.41,8.94a9.26,9.26,0,0,0,.35,5.6,6.94,6.94,0,0,0-1.6-1.6c0-.06-.06-.13-.1-.18a7.06,7.06,0,0,0-2.34-4.41,12.2,12.2,0,0,0-7.47-2.94,10.51,10.51,0,0,0-8.21,3.52l-.13.17a8.7,8.7,0,0,0-1.07-3.69,25,25,0,0,0-1.68-2.17,5.61,5.61,0,0,0-2.12-1.84l-2-.86c-.84-.12-1.67-.23-2.51-.33A8.33,8.33,0,0,0,363,62.35a6.4,6.4,0,0,0-2.33,2.14,7.93,7.93,0,0,0-1.48,7.23,10,10,0,0,0,2.27,4,6.46,6.46,0,0,0,2.3,1.6,13.94,13.94,0,0,0,2.54,1.1,10.49,10.49,0,0,0,4.53,0l1.89-.8a6.05,6.05,0,0,0,1.16-.82,9.86,9.86,0,0,0,3.85,8.08A11.17,11.17,0,0,0,383.79,87a12.31,12.31,0,0,0,8.61-2.34,6.17,6.17,0,0,0,3.26-1.54,5.76,5.76,0,0,0,1.78-3.45,6,6,0,0,0-.19-2.54,7.85,7.85,0,0,0,2.91,2.81c2.74,1.48,5.38,1.38,8.18,1.39,3.17,1.28,6.38,1.08,10,.16a11.49,11.49,0,0,0,7.65-6.9,21,21,0,0,0,8.72,10c5.81,3.27,12.14,3.67,18.52,2.07A25.06,25.06,0,0,0,470.3,71a26.77,26.77,0,0,0,15.42-.74,30.18,30.18,0,0,0,12.86-4.21A16,16,0,0,0,500,69.33l2.28,3,2.95,2.28L508.72,76a11,11,0,0,0,5.82.26,7.17,7.17,0,0,0,2.12-.33,18,18,0,0,0,4.11-1,26.27,26.27,0,0,0,.8,10.1,27.36,27.36,0,0,0,17.86,19,28.2,28.2,0,0,0,15.29,4.65c10.55,0,18.65-4.91,26.67-11.17,5.39-4.21,7.1-12.76,5.89-19.32a15.94,15.94,0,0,0,1.57-1,5.64,5.64,0,0,0,1.34-1.33,21.9,21.9,0,0,0,2.33-1,3.34,3.34,0,0,0,.58-.36l1,2.29c.64.83,1.29,1.66,1.93,2.5A13.7,13.7,0,0,0,604.74,83c2.5-.29,4.46-.43,6.69-1.69a24.84,24.84,0,0,0,7.91,7.09A23.57,23.57,0,0,0,638,90.08a19,19,0,0,0,9.6-6.16l.2,0c.55-.11,1.1-.21,1.64-.33a12.22,12.22,0,0,0,4.55-2.4,12.89,12.89,0,0,0,2.66-.41,31.14,31.14,0,0,0,4.57-1.89,12.57,12.57,0,0,0,0-21.7Z"/><path class="cls-2" d="M678.48,55.44a5.29,5.29,0,0,0-2.51-.72,12.11,12.11,0,0,0-1.69.26A4.64,4.64,0,0,0,671,59.31a5.3,5.3,0,0,0,.61,2.26,4.5,4.5,0,0,0,2.68,2.06,8.79,8.79,0,0,0,1.69.26,6.24,6.24,0,0,0,2.51-.72C681.4,61.77,681.4,56.84,678.48,55.44Z"/></g></g></svg>