<svg xmlns="http://www.w3.org/2000/svg" width="72.945" height="48.036" viewBox="0 0 72.945 48.036">
  <g id="Group_14" data-name="Group 14" transform="translate(0 0)">
    <path id="Path_1037" data-name="Path 1037" d="M0,0S28.121,7.994,32.7,19.019s-5.367,20.348-5.367,20.348a10.858,10.858,0,0,0-1.178-6.988c-1.944-3.417-8.04-5.432-8.04-5.432s4.265,4.071,5.322,7.31a11.228,11.228,0,0,1,0,6.376s-12.388.741-17.118-9.5S0,0,0,0Z" transform="matrix(0.966, -0.259, 0.259, 0.966, 0, 8.776)" fill="#71ad7f"/>
    <path id="Path_1038" data-name="Path 1038" d="M23.574,0S4.023,5.867.838,13.958,4.57,28.891,4.57,28.891a8.366,8.366,0,0,1,.819-5.128c1.351-2.508,5.589-3.987,5.589-3.987s-2.965,2.988-3.7,5.364a8.677,8.677,0,0,0,0,4.679s8.613.544,11.9-6.973S23.574,0,23.574,0Z" transform="matrix(0.891, 0.454, -0.454, 0.891, 51.94, 5.066)" fill="#71ad7f"/>
  </g>
</svg>
