<svg xmlns="http://www.w3.org/2000/svg" xmlns:xlink="http://www.w3.org/1999/xlink" width="152.527" height="28.279" viewBox="0 0 152.527 28.279">
  <defs>
    <clipPath id="clip-path">
      <rect id="Rectangle_164" data-name="Rectangle 164" width="41.777" height="28.279" fill="none"/>
    </clipPath>
  </defs>
  <g id="Group_64" data-name="Group 64" transform="translate(-18.473 -17)">
    <text id="SCOTT_TEA" data-name="SCOTT TEA" transform="translate(70 36)" fill="#f5f7fa" font-size="20" font-family="ITCAvantGardePro-Md, ITC Avant Garde Gothic Pro" font-weight="500" letter-spacing="0.025em"><tspan x="0" y="0">SCOTT TEA</tspan></text>
    <g id="Group_63" data-name="Group 63" transform="translate(18.473 17)">
      <g id="Group_62" data-name="Group 62" clip-path="url(#clip-path)">
        <path id="Path_1411" data-name="Path 1411" d="M168.564,75.575c1.161.442,2.293.915,3.389,1.372,4.994,2.084,8.458,3.377,10.868,1.829a14.671,14.671,0,0,0,.828-4.878,14.9,14.9,0,0,0-.2-2.41,20.157,20.157,0,0,1-8.066,3.581,30.29,30.29,0,0,1-6.823.507" transform="translate(-150.699 -63.911)" fill="#fff"/>
        <path id="Path_1412" data-name="Path 1412" d="M53.015,111.356c-3.961-1.652-8.414-3.457-12.632-3.062a10.561,10.561,0,0,0-3.738,1.162,14.517,14.517,0,0,0,3.37,6.94,66.537,66.537,0,0,0,6.808-2.637,58.672,58.672,0,0,1,6.192-2.4" transform="translate(-32.76 -96.767)" fill="#fff"/>
        <path id="Path_1413" data-name="Path 1413" d="M103.037,151.627a9.656,9.656,0,0,1-1.2-.079,20.637,20.637,0,0,1-4.57-1.256c-1.559-.567-5.527,1.132-9.032,2.634-2.045.876-4.116,1.763-6.07,2.414a14.659,14.659,0,0,0,19.95-.725,14.728,14.728,0,0,0,2.389-3.127,7.394,7.394,0,0,1-1.463.14" transform="translate(-73.453 -134.264)" fill="#fff"/>
        <path id="Path_1414" data-name="Path 1414" d="M45.183,40.362c5.453.3,11.062.612,16.562-3.152a16.683,16.683,0,0,1-4.806.661c-3.8,0-7.779-.995-11.624-1.957A40.867,40.867,0,0,0,36.382,34.3h-.054a.908.908,0,0,0-.831.549,14.579,14.579,0,0,0-1.195,5.8c0,.26.007.518.02.776,3.212-1.491,6.955-1.283,10.861-1.067" transform="translate(-30.667 -30.667)" fill="#fff"/>
        <path id="Path_1415" data-name="Path 1415" d="M39.96,10.959a6.169,6.169,0,0,0-3.39-1.737,18.06,18.06,0,0,0-1.988-7.567.909.909,0,0,0-1.4-.279,10.252,10.252,0,0,1-6.912,2.193h0c-3.355,0-7.11-.94-10.741-1.849A43.082,43.082,0,0,0,5.716,0a11.536,11.536,0,0,0-2.6.269.91.91,0,0,0-.579.424A18.3,18.3,0,0,0,5.358,22.921a18.293,18.293,0,0,0,25.87,0,18.57,18.57,0,0,0,1.705-1.963,6.2,6.2,0,0,0,7.027-10m-21.667,15.5A16.478,16.478,0,0,1,3.9,1.964a10.329,10.329,0,0,1,1.814-.146,41.94,41.94,0,0,1,9.374,1.667c3.738.936,7.6,1.9,11.183,1.9h0a12.5,12.5,0,0,0,7.155-1.92,16.3,16.3,0,0,1,1.339,6.52A16.494,16.494,0,0,1,18.293,26.462m20.382-8.016a4.4,4.4,0,0,1-4.706.981,18.135,18.135,0,0,0,2.584-8.356,4.385,4.385,0,0,1,2.122,7.376" fill="#fff"/>
      </g>
    </g>
  </g>
</svg>
