<svg xmlns="http://www.w3.org/2000/svg" viewBox="0 0 349.93 271.75"><defs><style>.cls-1{fill:#37354d;}.cls-2{fill:#ff8a2a;}.cls-3{fill:#ebebeb;}.cls-4{font-size:5.98px;fill:#919191;font-family:SuisseIntl-SemiBold, Suisse Intl;font-weight:600;letter-spacing:-0.02em;}</style></defs><g id="Layer_2" data-name="Layer 2"><g id="Layer_1-2" data-name="Layer 1"><circle cx="186" cy="142.02" r="129.73"/><circle class="cls-1" cx="183.51" cy="136.55" r="129.73"/><path d="M77.21,75.26a14.58,14.58,0,0,0-4.07-.87,33.5,33.5,0,0,0-5.3,0c-1.93.14-3.72.34-5.38.58a36.55,36.55,0,0,0-4.33.9,6.36,6.36,0,0,0-2.07.8,8.44,8.44,0,0,0-1.21,3,45.55,45.55,0,0,0-1,5c-.26,1.83-.44,3.63-.57,5.41a29.74,29.74,0,0,0-.09,4.07,3.51,3.51,0,0,0,1.54,2.53,12.92,12.92,0,0,0,3.43,1.89,21.82,21.82,0,0,0,4.28,1.11,18.63,18.63,0,0,0,4.21.2c1.29-.09,2.66-1.1,4.12-3a43.16,43.16,0,0,0,4-6.56,50.94,50.94,0,0,0,3.06-7.46A16.44,16.44,0,0,0,79,77.2C78.9,76.34,78.31,75.69,77.21,75.26Z"/><path d="M279.05,97.21a33.27,33.27,0,0,0-2.22-10q-1.81-4.52-3.93-8.63c-1.4-2.74-2.7-5.42-3.88-8.05a24.45,24.45,0,0,1-2.09-8.31c-.26-3.51.14-6.24,1.21-8.17a13.94,13.94,0,0,1,3.68-4.47,20.35,20.35,0,0,1,3.83-2.34c1.17-.52,1.73-1.07,1.69-1.67s-.18-1.78-.39-3.53a15.5,15.5,0,0,0-1.74-5.29,12.53,12.53,0,0,0-4.41-4.6q-3-1.91-8.25-1.52A12,12,0,0,0,255,34.05a25.44,25.44,0,0,0-5.49,7.83A40.4,40.4,0,0,0,246.35,52a41.41,41.41,0,0,0-.61,10.19,10.52,10.52,0,0,0,.15,1.21c.07.39.12.8.16,1.23-1.74,3.39-3.73,7.14-6,11.22s-4.64,8.07-7.2,12A35.78,35.78,0,0,0,230.59,82q-1.44-2.86-2.81-5.67t-2.47-5.57a18.08,18.08,0,0,1-1.3-5.46q-.39-5.26,1.2-8.17a14.93,14.93,0,0,1,3.68-4.53,18.8,18.8,0,0,1,3.83-2.41c1.17-.51,1.73-1.07,1.68-1.67s-.17-1.75-.38-3.47a15,15,0,0,0-1.74-5.22,12.56,12.56,0,0,0-4.34-4.6c-1.95-1.27-4.68-1.79-8.19-1.53a12,12,0,0,0-7.62,3.46A26,26,0,0,0,206.69,45a39.26,39.26,0,0,0-3.15,10,41.41,41.41,0,0,0-.61,10.19,39.16,39.16,0,0,0,1.13,6.58q.91,3.61,2,7.28c.74,2.45,1.4,4.79,2,7a32,32,0,0,1,1.06,5.68,7.13,7.13,0,0,1-.86,4.13,9.8,9.8,0,0,1-2.75,3.1,14,14,0,0,1-3.91,2,17.75,17.75,0,0,1-4.39.89c-1.47.11-2.33-.21-2.6-1a4.9,4.9,0,0,1-.06-2.71c.22-1,.44-2.1.67-3.15s.11-1.78-.36-2.17-1.65-.57-3.59-.51a18.55,18.55,0,0,0-3.38.44,79,79,0,0,0,4.85-8.69A42.39,42.39,0,0,0,196.3,73.3a6.64,6.64,0,0,0-.27-2.7,19.3,19.3,0,0,0-1.13-3.15,14.19,14.19,0,0,0-1.48-2.54c-.53-.69-1-1-1.43-1-.26,0-1,1-2.24,2.94s-2.95,4.4-5.15,7.35-4.87,6.17-8,9.63a79.69,79.69,0,0,1-10.85,9.84,68.05,68.05,0,0,1-13.62,8,49.1,49.1,0,0,1-16.38,4,46.16,46.16,0,0,1-4.84.1,9.93,9.93,0,0,1-4.27-1,8.24,8.24,0,0,1-3.19-2.93,11.29,11.29,0,0,1-1.56-5.44,60.64,60.64,0,0,1,9-37.29,65.82,65.82,0,0,1,11.41-13.68,78.41,78.41,0,0,1,13.91-10.25,73.37,73.37,0,0,1,15-6.6,65.4,65.4,0,0,1,14.58-2.87,7,7,0,0,1,3.73.76,11.29,11.29,0,0,1,3.36,2.6,38.05,38.05,0,0,1-5.2,7.42q-3.06,3.39-6,6.13c-2,1.82-3.75,3.32-5.29,4.52a23.59,23.59,0,0,0-3,2.61c-.31.36-.1.87.63,1.5a11.89,11.89,0,0,0,3,1.79,24.24,24.24,0,0,0,4.1,1.31,12.61,12.61,0,0,0,3.71.37A20.23,20.23,0,0,0,192.54,52,47.08,47.08,0,0,0,201,46.14a37.75,37.75,0,0,0,6.74-7.54,12.48,12.48,0,0,0,2.46-7.93,13.71,13.71,0,0,0-2.69-7.55,18.72,18.72,0,0,0-5-4.68,13.86,13.86,0,0,0-4.73-2c-1.4-.24-2.07-.06-2,.54a13,13,0,0,1-.16,3.11,41.28,41.28,0,0,0-3.49-6.26,26.88,26.88,0,0,0-5-5.59,24.33,24.33,0,0,0-6.42-3.86,16.62,16.62,0,0,0-7.51-1.12,47.72,47.72,0,0,0-14,3.74A107.08,107.08,0,0,0,142.09,16,145.12,145.12,0,0,0,124.46,29.2,106.15,106.15,0,0,0,109,45.83,79.08,79.08,0,0,0,98.46,65,48.29,48.29,0,0,0,95.4,85.85,31.57,31.57,0,0,0,99,98.45,47.79,47.79,0,0,0,106.59,109a55,55,0,0,0,10,8.31,84.15,84.15,0,0,0,10.77,5.92,59.47,59.47,0,0,0,9.82,3.55,24.06,24.06,0,0,0,7.24,1,28.55,28.55,0,0,0,10.62-3.17,64.62,64.62,0,0,0,11.11-7.14,87.7,87.7,0,0,0,10.58-10c.6-.66,1.13-1.34,1.71-2a11.92,11.92,0,0,0,1.7,2.8,21.12,21.12,0,0,0,6.11,5,31.45,31.45,0,0,0,8.57,3.18,34.17,34.17,0,0,0,9.94.7,36.64,36.64,0,0,0,12.45-2.91,33.29,33.29,0,0,0,8.76-5.63,49.42,49.42,0,0,0,7.42-7.13,89.11,89.11,0,0,0,6.24-8.27c1.9-2.85,3.64-5.71,5.19-8.58s2.92-5.64,4.1-8.31q2,5.79,3.92,11.08A35.86,35.86,0,0,1,255.13,97c.31,4.11-.09,7.14-1.2,9.07a7.33,7.33,0,0,1-3.94,3.64,8.76,8.76,0,0,1-7.72-1.43,3.47,3.47,0,0,1-.78-2.66c0-1.2,0-2.32,0-3.35a2.7,2.7,0,0,0-.8-2.14c-.5-.4-1.58-.11-3.23.88q-6.51,4.6-7.27,9.26a10.39,10.39,0,0,0,2,8.25,18.59,18.59,0,0,0,7.72,5.76A21.38,21.38,0,0,0,250,126.08q15.68-1.14,22.89-7.69T279.05,97.21Z"/><path d="M236.73,197.42a15,15,0,0,0-4.84-4.15,14,14,0,0,0-6.85-1.62c-1.11,0-2.15,0-3.14,0s-2,.08-3,.15q2.55-6.66,4.75-12.93t3.86-11.2q1.67-5,2.79-8.17c.75-2.16,1.26-3.49,1.52-4,.39-.85,0-1.85-1.22-3a27.79,27.79,0,0,0-4.31-3.28,47.13,47.13,0,0,0-4.89-2.69,18.6,18.6,0,0,0-3-1.23v.1c-.2.33-.83,1.36-1.91,3.08s-2.41,3.85-4,6.37-3.38,5.22-5.34,8.12-3.88,5.68-5.77,8.32-3.67,5-5.33,7.1a25.66,25.66,0,0,1-4.07,4.3,49.47,49.47,0,0,1,3.28-9.49q2.1-4.5,4.16-8.17t3.58-6.22a8.66,8.66,0,0,0,1.51-3.72,5.15,5.15,0,0,0-1.76-3.23,29.94,29.94,0,0,0-4.11-3.57,33.13,33.13,0,0,0-4.7-2.89,9.06,9.06,0,0,0-3.52-1.17,10.67,10.67,0,0,1-1.13,4.16q-1.12,2.49-2.79,5.63c-1.11,2.08-2.3,4.31-3.57,6.65-.56,1-1.05,2.07-1.57,3.11-.92,1.16-1.88,2.42-2.79,3.55q-1.86,2.34-3.86,4.79t-4,4.8c-1.3,1.56-2.59,3.05-3.86,4.45s-2.43,2.63-3.48,3.68a67.16,67.16,0,0,1,2.74-9.5c1.18-3.19,2.38-6.2,3.63-9s2.39-5.24,3.47-7.3,1.81-3.54,2.2-4.45,0-1.86-1.22-3a25,25,0,0,0-4.36-3.32,50,50,0,0,0-4.94-2.7,12.2,12.2,0,0,0-2.89-1.12,7.19,7.19,0,0,1-.68,1.91c-.46,1-1.11,2.3-2,3.86a18.78,18.78,0,0,0-1,1.76,22.62,22.62,0,0,1-1.18,2.06,16.12,16.12,0,0,0-4.11-3.37,36.68,36.68,0,0,0-5.57-2.79,50.07,50.07,0,0,0-5.73-1.92,19.19,19.19,0,0,0-4.55-.73,4.43,4.43,0,0,0-2.79,1.57,28.87,28.87,0,0,0-3.43,4.15,50.27,50.27,0,0,0-3.52,6c-1.14,2.25-2.19,4.55-3.13,6.9-.18.44-.26.87-.43,1.32-.26.27-.48.56-.75.84a27.4,27.4,0,0,1-3.22,2.88,6.27,6.27,0,0,1-2.5,1.27c-.66.1-1-.31-1-1.22a10.05,10.05,0,0,1,1.27-3.87c.85-1.72,1.78-3.56,2.79-5.48s1.94-3.77,2.79-5.53a10.38,10.38,0,0,0,1.27-4,5,5,0,0,0-1.12-3.18,8.86,8.86,0,0,0-3.13-2.4,19.67,19.67,0,0,0-4.65-1.52,28.45,28.45,0,0,0-5.68-.54c-.85,0-1.85.67-3,2a41.14,41.14,0,0,0-3.72,5.33c-1.33,2.22-2.71,4.77-4.11,7.64s-2.79,5.8-4.16,8.81c.72-2.16,1.41-4.19,2.06-6.12s1.22-3.64,1.71-5.14.88-2.76,1.18-3.77a9.42,9.42,0,0,0,.44-2,3.81,3.81,0,0,0-1-1.71,22.69,22.69,0,0,0-2.65-2.59q-1.61-1.37-3.42-2.74a24.8,24.8,0,0,0-2.69-1.75,8,8,0,0,0,.49-2.46,10.39,10.39,0,0,0-1.62-5.87A14.24,14.24,0,0,0,86,128.42a10.35,10.35,0,0,0-3.48-1.76c-1-.27-1.56-.16-1.56.29a9.47,9.47,0,0,1-.3,2.35,30.71,30.71,0,0,0-2.3-4.94,20,20,0,0,0-3.47-4.51,18.36,18.36,0,0,0-4.65-3.28,12.73,12.73,0,0,0-5.63-1.26,36.54,36.54,0,0,0-10.81,2,81.19,81.19,0,0,0-13.47,5.83,109.7,109.7,0,0,0-14.09,9.05A80.25,80.25,0,0,0,13.61,144a60,60,0,0,0-9,14,36.59,36.59,0,0,0-3.47,15.61,24,24,0,0,0,2,9.75,36.34,36.34,0,0,0,5.19,8.41,41.68,41.68,0,0,0,7.14,6.85,64.47,64.47,0,0,0,7.83,5.09,45.66,45.66,0,0,0,7.25,3.23A18.24,18.24,0,0,0,35.93,208a21.8,21.8,0,0,0,8.22-1.81,48.74,48.74,0,0,0,8.81-4.8,67.1,67.1,0,0,0,8.57-6.95,84.14,84.14,0,0,0,7.58-8.22A61.65,61.65,0,0,0,74.74,178c-.89,2.15-1.67,4.07-2.3,5.66a12.49,12.49,0,0,0-1.07,3.91,5.13,5.13,0,0,0,1.42,2.74,21.23,21.23,0,0,0,3.62,3.48,28.15,28.15,0,0,0,4.75,3A10.7,10.7,0,0,0,86,198q.49-1.66,2-5.38t3.68-8.32q2.1-4.6,4.6-9.74t4.89-9.74q2.4-4.61,4.36-8.12a47.49,47.49,0,0,1,3.13-5.09c.59-.52,1.13-.64,1.61-.34s.74,1.29.74,3a8.61,8.61,0,0,1-1.22,3.28c-.82,1.53-1.72,3.25-2.7,5.14s-1.88,3.85-2.69,5.87a14.92,14.92,0,0,0-1.22,5.58,5.31,5.31,0,0,0,.49,2.11,6.3,6.3,0,0,0,1.46,2,8.91,8.91,0,0,0,2.36,1.57,7.38,7.38,0,0,0,3.13.63,8,8,0,0,0,3.82-1.22,29.78,29.78,0,0,0,4.45-3.18c1-.86,2-1.91,2.94-2.92a28.08,28.08,0,0,0-.55,4.19c0,1.11.7,2.33,2.11,3.67a31,31,0,0,0,5,3.82,66.21,66.21,0,0,0,5.92,3.32c2,1,3.69,1.79,5,2.31a3.79,3.79,0,0,0,2,.58c.46,0,1.26-.81,2.4-2.44s2.46-3.72,4-6.27v.78a4.47,4.47,0,0,0,1.18,2.65,20.89,20.89,0,0,0,2.94,2.94,43.62,43.62,0,0,0,3.76,2.79c1.34.87,2.56,1.61,3.67,2.2a8.54,8.54,0,0,0,1.91,1.12,4.61,4.61,0,0,0,1.81.44q.5,0,2-1.47c1-1,2.2-2.25,3.57-3.81s2.87-3.37,4.5-5.39c.87-1.06,1.73-2.2,2.59-3.31a6.25,6.25,0,0,0,2,3.07,46,46,0,0,0,4.9,4.11q2.73,2,5.24,3.48a9.13,9.13,0,0,0,3.27,1.46v-.09a.48.48,0,0,1,.2,0,.35.35,0,0,0,.2,0q.58,0,2.1-1.56a47.36,47.36,0,0,0,3.52-4.21q2-2.64,4.41-6c1.6-2.25,3.21-4.59,4.84-7s3.22-4.79,4.75-7.15,2.92-4.5,4.16-6.46q-2.06,7.25-5,15.81T204,194a68.84,68.84,0,0,0-12.82,4.31,48.48,48.48,0,0,0-9.89,5.87,27.31,27.31,0,0,0-6.36,6.8,13.44,13.44,0,0,0-2.25,7.2q0,6.94,2,11.16a18.13,18.13,0,0,0,5,6.56A16.15,16.15,0,0,0,186,239a26.89,26.89,0,0,0,6.12.79c1.43,0,3-1,4.8-2.89a45,45,0,0,0,5.43-7.68q2.79-4.8,5.67-11.11t5.73-13.27a30.84,30.84,0,0,1,9.2,1.37,17.89,17.89,0,0,1,6,3.23,11.29,11.29,0,0,1,3.19,4.36,12.81,12.81,0,0,1,.92,4.55c0,.59.39.63,1.18.1a13.74,13.74,0,0,0,2.54-2.3,25.22,25.22,0,0,0,2.55-3.37,6.28,6.28,0,0,0,1.17-3.14,23.18,23.18,0,0,0-.93-6.45A17.58,17.58,0,0,0,236.73,197.42ZM82.18,159.06q-1.71,4.89-3.57,9.49c-.14.35-.26.62-.39,1a5.16,5.16,0,0,0,0-1.94,15.18,15.18,0,0,0-.69-2.44,10.18,10.18,0,0,0-1-2c-.36-.56-.7-.83-1-.83s-.82.7-1.87,2.1-2.48,3.17-4.3,5.28a94.84,94.84,0,0,1-6.61,6.86,60.82,60.82,0,0,1-8.76,6.85,51.86,51.86,0,0,1-10.77,5.29,37.18,37.18,0,0,1-12.62,2.1,34.28,34.28,0,0,1-3.67-.2,7.51,7.51,0,0,1-3.18-1,6.36,6.36,0,0,1-2.26-2.39,8.67,8.67,0,0,1-.88-4.21,46.06,46.06,0,0,1,8.86-27.75,50.46,50.46,0,0,1,9.4-9.74,59.75,59.75,0,0,1,11.11-7,55.55,55.55,0,0,1,11.7-4.17,49.89,49.89,0,0,1,11.2-1.37,5.4,5.4,0,0,1,2.79.78,8.82,8.82,0,0,1,2.4,2.16,28.63,28.63,0,0,1-4.35,5.33q-2.51,2.4-4.9,4.31t-4.26,3.13a19.15,19.15,0,0,0-2.45,1.81c-.26.26-.13.66.4,1.18a8.83,8.83,0,0,0,2.2,1.52,18.09,18.09,0,0,0,3,1.22,9.76,9.76,0,0,0,2.8.49,15.34,15.34,0,0,0,6.06-1.57,36,36,0,0,0,6.76-4c.76-.56,1.43-1.18,2.11-1.79-.12.6-.2,1.18-.35,1.79Q83.89,154.17,82.18,159.06ZM151.87,163q-2.1,3.43-4.26,6.7t-4.16,6.18c-1.33,1.92-2.53,3.53-3.57,4.84a13.66,13.66,0,0,1-2.5,2.6q-.93.63-1-.45a35.49,35.49,0,0,1,1.12-4.75c.55-1.85,1.24-3.82,2.06-5.87s1.73-4.07,2.74-6.07a50.3,50.3,0,0,1,3.13-5.38,21.29,21.29,0,0,1,3.23-3.87,4.86,4.86,0,0,1,3.18-1.47,8.12,8.12,0,0,1,2.2.3,7.56,7.56,0,0,1,1.82.78C154.59,158.53,153.28,160.69,151.87,163Zm43,53.4q-2,4.35-3.57,7.54a43.43,43.43,0,0,1-2.89,5c-.85,1.2-1.5,1.81-2,1.81a1,1,0,0,1-.54-.3,3.16,3.16,0,0,1-.68-1.32,16,16,0,0,1-.59-3,46.46,46.46,0,0,1-.25-5.39q0-4.5,4-8.12a28,28,0,0,1,10.47-5.68Q196.85,212,194.89,216.37Z"/><path d="M349.83,150.59a11.48,11.48,0,0,0-1-4.11,9.47,9.47,0,0,0-3.09-3.72,10.16,10.16,0,0,0-6.16-1.62,9.22,9.22,0,0,0-5.93,2.2A19.51,19.51,0,0,0,329,149a30.44,30.44,0,0,0-2.94,7.49,31.23,31.23,0,0,0-1,7.69,28.64,28.64,0,0,0,.49,4.94c.32,1.86.7,3.74,1.12,5.63s.81,3.71,1.13,5.43a23.89,23.89,0,0,1,.49,4.36,5.64,5.64,0,0,1-.88,3.13,7.54,7.54,0,0,1-2.25,2.25,15.24,15.24,0,0,1-6.46,1.76c-4.35-.33-3.85-4.55-4-7.54a30.09,30.09,0,0,1,1.07-8.17,80.33,80.33,0,0,1,2.84-9.73c1.08-3,2.12-5.45,3.13-7.55s1.71-3.55,2.11-4.4,0-2-1.08-3.48a24.38,24.38,0,0,0-4.06-4.15,21.24,21.24,0,0,0-4.85-3c-1.63-.72-2.74-.78-3.32-.19-.92,0-2.08.79-3.48,2.39a53.26,53.26,0,0,0-4.55,6.22c-1.63,2.55-3.33,5.38-5.09,8.52s-3.43,6.23-5,9.3q1.17-3,2.2-5.88t1.86-5.09c.55-1.5,1-2.75,1.32-3.77a8.4,8.4,0,0,0,.49-2c0-.46-.57-1.18-1.71-2.15a30.94,30.94,0,0,0-3.92-2.84c-1.47-.92-2.9-1.73-4.31-2.45a8.12,8.12,0,0,0-2.88-1.08,42.11,42.11,0,0,1-1.57,6.07q-1.17,3.62-2.64,7.74t-3.08,8.36c-.22.57-.39,1-.59,1.59a22.11,22.11,0,0,1-2,1.3c-.52.2-1.06.42-1.61.68a12.4,12.4,0,0,1-1.91.69q2.44-5.38,2.25-7.93a13.6,13.6,0,0,0-1.17-4.55,10.25,10.25,0,0,0-2.11-3,8.28,8.28,0,0,0-2.64-1.77,15.76,15.76,0,0,0-2.89-.88c-.52-.45-1.45-1.19-2.79-2.2s-2.82-2-4.45-3a47.51,47.51,0,0,0-4.85-2.64,9.85,9.85,0,0,0-4-1.12c-2.48,0-5,1.06-7.64,3.18a31.47,31.47,0,0,0-7,8.17,44.14,44.14,0,0,0-4.74,11.16,33.46,33.46,0,0,0-1.13,12.24,10.22,10.22,0,0,0,2.15,4.74,31.52,31.52,0,0,0,4.75,5.14,33.64,33.64,0,0,0,5.88,4.16,11.62,11.62,0,0,0,5.53,1.71,13.78,13.78,0,0,0,6.16-1.51,27.74,27.74,0,0,0,5.83-4,39.08,39.08,0,0,0,5.19-5.58c1.59-2.09,3-4.17,4.35-6.26a26.83,26.83,0,0,0,6.07-1.51c-.72,2-1.36,3.83-1.86,5.37a14.5,14.5,0,0,0-.88,3.78,2.55,2.55,0,0,0,.88,1.51,19.87,19.87,0,0,0,2.25,2c.91.71,1.91,1.43,3,2.15s2.11,1.37,3.09,2,1.84,1.06,2.59,1.42a4.89,4.89,0,0,0,1.52.54,32.49,32.49,0,0,1,2.49-5.58q2-3.83,4.8-8.62t6-10q3.18-5.19,6-9.5-1.56,4.9-3,10.18a96.34,96.34,0,0,0-2.15,10,41.57,41.57,0,0,0-.54,8.46c.13,2.48.79,4.31,2,5.48a29.55,29.55,0,0,0,7.59,5.88,27.25,27.25,0,0,0,6.46,2.44,29.18,29.18,0,0,0,8.46.5c3.91-.3,7.44-.6,10.38-1.77a23,23,0,0,0,7.24-4.41,18.33,18.33,0,0,0,4.26-5.72A13.89,13.89,0,0,0,346.9,186a16.8,16.8,0,0,0-.88-5.28q-.88-2.66-2-5.23c-.75-1.74-1.42-3.45-2-5.15a15.36,15.36,0,0,1-.88-5,11.32,11.32,0,0,1,1.37-6.12,10.7,10.7,0,0,1,3-3.18,14.62,14.62,0,0,1,3-1.56c.92-.33,1.37-.72,1.37-1.18S349.9,151.93,349.83,150.59ZM255.77,180.2a37.8,37.8,0,0,1-3.37,4.31,19,19,0,0,1-3.43,3,6,6,0,0,1-3.28,1.13.75.75,0,0,1-.63-.34,2.61,2.61,0,0,1-.39-.84,4.78,4.78,0,0,1-.2-1,6.49,6.49,0,0,1-.05-.79,23.19,23.19,0,0,1,1.32-10,43.2,43.2,0,0,1,4.95-10,16.23,16.23,0,0,0,1.36,2.7c.53.81,1,1.55,1.57,2.2a23.52,23.52,0,0,0,2.55,2.54,17.43,17.43,0,0,0,2.74,2Q257.44,177.75,255.77,180.2ZM264,163.85a61.46,61.46,0,0,1-2.64,6.46,12.86,12.86,0,0,1-2-1.51,16.3,16.3,0,0,1-1.91-2.06,13.25,13.25,0,0,1-1.52-2.45,7.19,7.19,0,0,1-.73-2.59v-.93a2.49,2.49,0,0,1,.19-.93,20.8,20.8,0,0,1,5.39-4.6,5.73,5.73,0,0,1,2.49,1.08,4.33,4.33,0,0,1,1.52,3.13A10.89,10.89,0,0,1,264,163.85Z"/><path class="cls-2" d="M76.12,72a14.87,14.87,0,0,0-4.06-.87,33.5,33.5,0,0,0-5.3,0c-1.93.14-3.72.34-5.39.58a39.16,39.16,0,0,0-4.33.9,6.25,6.25,0,0,0-2.06.8,8.07,8.07,0,0,0-1.21,3,45.47,45.47,0,0,0-1,5c-.25,1.83-.44,3.63-.57,5.41A29.74,29.74,0,0,0,52.12,91a3.55,3.55,0,0,0,1.54,2.54,13.25,13.25,0,0,0,3.44,1.88,21,21,0,0,0,4.28,1.11,19.27,19.27,0,0,0,4.21.21c1.29-.1,2.65-1.11,4.11-3a42.38,42.38,0,0,0,4-6.56,52.13,52.13,0,0,0,3.07-7.46A16.68,16.68,0,0,0,77.88,74C77.82,73.11,77.23,72.47,76.12,72Z"/><path class="cls-2" d="M278,94a33.26,33.26,0,0,0-2.23-10q-1.82-4.51-3.92-8.63t-3.88-8a24.23,24.23,0,0,1-2.1-8.31c-.26-3.51.15-6.23,1.21-8.17a13.91,13.91,0,0,1,3.68-4.46A20.24,20.24,0,0,1,274.56,44c1.17-.52,1.74-1.07,1.69-1.67s-.18-1.78-.39-3.53a15.08,15.08,0,0,0-1.74-5.29,12.45,12.45,0,0,0-4.41-4.6c-2-1.26-4.74-1.78-8.25-1.52a12,12,0,0,0-7.56,3.46,25.3,25.3,0,0,0-5.5,7.83,40.82,40.82,0,0,0-3.14,10.11A41.93,41.93,0,0,0,244.65,59a9,9,0,0,0,.16,1.22,11,11,0,0,1,.15,1.22q-2.61,5.1-6,11.22t-7.2,12a35,35,0,0,0-2.3-5.78q-1.44-2.87-2.8-5.67c-.92-1.87-1.74-3.73-2.48-5.57a18.38,18.38,0,0,1-1.3-5.46q-.39-5.27,1.21-8.16a14.84,14.84,0,0,1,3.67-4.54A19.54,19.54,0,0,1,231.63,47c1.17-.51,1.73-1.07,1.69-1.67s-.17-1.75-.38-3.47a15.25,15.25,0,0,0-1.75-5.22,12.48,12.48,0,0,0-4.34-4.6c-1.94-1.27-4.67-1.79-8.18-1.53A12,12,0,0,0,211,34a26.36,26.36,0,0,0-5.44,7.77,39.64,39.64,0,0,0-3.14,10A41,41,0,0,0,201.85,62,39.06,39.06,0,0,0,203,68.53q.92,3.61,2,7.28t2,7a31.1,31.1,0,0,1,1.06,5.68,7.13,7.13,0,0,1-.85,4.13,10.05,10.05,0,0,1-2.75,3.1,13.88,13.88,0,0,1-3.92,2,18.24,18.24,0,0,1-4.39.9c-1.46.1-2.32-.22-2.59-1a5,5,0,0,1-.07-2.71c.23-1,.45-2.1.67-3.15s.11-1.78-.35-2.17-1.66-.57-3.59-.51a18.33,18.33,0,0,0-3.38.44,79.74,79.74,0,0,0,4.85-8.69,42.34,42.34,0,0,0,3.53-10.85,6.61,6.61,0,0,0-.26-2.7,20.19,20.19,0,0,0-1.14-3.14,14.3,14.3,0,0,0-1.47-2.55c-.53-.69-1-1-1.43-1-.26,0-1,1-2.25,3S185.71,68,183.52,71a125,125,0,0,1-8,9.63,79.6,79.6,0,0,1-10.84,9.84,67.85,67.85,0,0,1-13.63,8,49,49,0,0,1-16.37,4,46.22,46.22,0,0,1-4.84.1,10,10,0,0,1-4.28-1,8.38,8.38,0,0,1-3.19-2.93,11.29,11.29,0,0,1-1.56-5.44,60.5,60.5,0,0,1,9-37.28,65.52,65.52,0,0,1,11.4-13.69,79.14,79.14,0,0,1,13.91-10.25,73.62,73.62,0,0,1,15-6.6,66.08,66.08,0,0,1,14.58-2.87,7,7,0,0,1,3.74.76,11.41,11.41,0,0,1,3.36,2.6,37.67,37.67,0,0,1-5.21,7.42q-3,3.39-6,6.13c-2,1.82-3.74,3.32-5.29,4.52a24,24,0,0,0-3,2.61q-.48.55.63,1.5a11.64,11.64,0,0,0,3,1.79A24.07,24.07,0,0,0,179.93,51a12.58,12.58,0,0,0,3.71.37,20.2,20.2,0,0,0,7.81-2.64,46.73,46.73,0,0,0,8.49-5.85,37.8,37.8,0,0,0,6.75-7.54,12.52,12.52,0,0,0,2.45-7.93,13.7,13.7,0,0,0-2.68-7.55,18.54,18.54,0,0,0-5-4.67,13.55,13.55,0,0,0-4.73-2c-1.4-.24-2.07-.06-2,.54a12.06,12.06,0,0,1-.16,3.11,40.9,40.9,0,0,0-3.49-6.26,26.83,26.83,0,0,0-5-5.59,24.33,24.33,0,0,0-6.42-3.86A16.8,16.8,0,0,0,172.12.05a47.88,47.88,0,0,0-14,3.74A107.43,107.43,0,0,0,141,12.73,143.58,143.58,0,0,0,123.38,26,105.74,105.74,0,0,0,107.92,42.6,78.89,78.89,0,0,0,97.38,61.79a48.31,48.31,0,0,0-3.06,20.83,31.36,31.36,0,0,0,3.57,12.6,47.79,47.79,0,0,0,7.62,10.55,55,55,0,0,0,10,8.31A82.94,82.94,0,0,0,126.32,120a58.25,58.25,0,0,0,9.82,3.55,24,24,0,0,0,7.24,1A28.65,28.65,0,0,0,154,121.34a65,65,0,0,0,11.11-7.14,88.35,88.35,0,0,0,10.58-10c.59-.66,1.13-1.35,1.7-2a12.32,12.32,0,0,0,1.71,2.8,21.12,21.12,0,0,0,6.11,5,31.38,31.38,0,0,0,8.56,3.18,34.19,34.19,0,0,0,9.94.7A36.41,36.41,0,0,0,216.16,111a33.27,33.27,0,0,0,8.76-5.62,49,49,0,0,0,7.42-7.14A89.23,89.23,0,0,0,238.59,90q2.85-4.28,5.18-8.58t4.11-8.31q2,5.79,3.91,11.08a36,36,0,0,1,2.26,9.66c.3,4.1-.1,7.13-1.21,9.06a7.38,7.38,0,0,1-3.93,3.65,8.82,8.82,0,0,1-7.73-1.44,3.46,3.46,0,0,1-.77-2.65c0-1.21,0-2.33,0-3.36a2.7,2.7,0,0,0-.8-2.14c-.51-.4-1.58-.11-3.23.88q-6.51,4.62-7.27,9.26a10.35,10.35,0,0,0,2,8.25,18.53,18.53,0,0,0,7.72,5.76,21.36,21.36,0,0,0,10.14,1.78q15.69-1.14,22.89-7.69T278,94Z"/><path class="cls-3" d="M235.65,194.2A15.07,15.07,0,0,0,230.8,190a14,14,0,0,0-6.85-1.62c-1.11,0-2.15,0-3.13.05s-2,.08-3,.15q2.53-6.66,4.74-12.92t3.87-11.21q1.66-5,2.79-8.17a42.2,42.2,0,0,1,1.52-4c.39-.85,0-1.85-1.23-3a27.21,27.21,0,0,0-4.3-3.28,47.24,47.24,0,0,0-4.9-2.69,18.22,18.22,0,0,0-3-1.23v.1c-.19.33-.82,1.36-1.9,3.08s-2.42,3.86-4,6.37-3.37,5.22-5.33,8.12-3.88,5.68-5.78,8.32-3.67,5-5.33,7.1a25.69,25.69,0,0,1-4.06,4.3,48.14,48.14,0,0,1,3.28-9.49q2.1-4.5,4.16-8.17t3.57-6.22a8.73,8.73,0,0,0,1.52-3.71,5.17,5.17,0,0,0-1.77-3.24,29.94,29.94,0,0,0-4.11-3.57,34,34,0,0,0-4.69-2.89,9.09,9.09,0,0,0-3.53-1.17,10.63,10.63,0,0,1-1.12,4.16q-1.12,2.49-2.79,5.63c-1.12,2.08-2.3,4.31-3.58,6.65-.56,1-1,2.07-1.57,3.11-.92,1.16-1.87,2.42-2.78,3.55-1.24,1.56-2.53,3.17-3.87,4.8s-2.66,3.23-4,4.79-2.59,3-3.87,4.45-2.43,2.63-3.47,3.68a66.23,66.23,0,0,1,2.74-9.5c1.17-3.19,2.38-6.2,3.62-9s2.4-5.24,3.47-7.3,1.81-3.54,2.21-4.45,0-1.86-1.23-3a25,25,0,0,0-4.35-3.32,53.53,53.53,0,0,0-4.95-2.7,12.38,12.38,0,0,0-2.88-1.12,7,7,0,0,1-.69,1.91c-.46,1-1.11,2.3-2,3.86-.33.53-.65,1.11-1,1.76a22.62,22.62,0,0,1-1.18,2.06,16.48,16.48,0,0,0-4.11-3.37,36.33,36.33,0,0,0-5.58-2.79,50.48,50.48,0,0,0-5.72-1.91,18.85,18.85,0,0,0-4.56-.74,4.5,4.5,0,0,0-2.79,1.57,27.85,27.85,0,0,0-3.42,4.16,49.31,49.31,0,0,0-3.53,6q-1.71,3.38-3.13,6.9c-.18.44-.26.88-.42,1.32-.26.27-.49.56-.75.84a27.43,27.43,0,0,1-3.23,2.88,6.21,6.21,0,0,1-2.5,1.27c-.65.1-1-.31-1-1.22a10.23,10.23,0,0,1,1.27-3.87q1.27-2.58,2.8-5.48c1-1.92,1.94-3.77,2.79-5.53a10.56,10.56,0,0,0,1.27-4,5,5,0,0,0-1.13-3.18,8.77,8.77,0,0,0-3.13-2.4,19.67,19.67,0,0,0-4.65-1.52,29.06,29.06,0,0,0-5.68-.54c-.85,0-1.84.67-3,2a40.86,40.86,0,0,0-3.72,5.33c-1.34,2.23-2.71,4.77-4.11,7.64s-2.79,5.81-4.16,8.81c.71-2.16,1.4-4.19,2-6.12s1.23-3.64,1.72-5.13.88-2.76,1.17-3.78a9.5,9.5,0,0,0,.44-2,3.62,3.62,0,0,0-1-1.71,21.78,21.78,0,0,0-2.64-2.6q-1.62-1.37-3.43-2.74a24.73,24.73,0,0,0-2.68-1.75,8,8,0,0,0,.48-2.46A10.47,10.47,0,0,0,88.44,129a14.43,14.43,0,0,0-3.53-3.82,10.41,10.41,0,0,0-3.47-1.76c-1-.26-1.57-.16-1.57.29a9.88,9.88,0,0,1-.29,2.35,32.53,32.53,0,0,0-2.3-4.94,20.3,20.3,0,0,0-3.48-4.5,18.15,18.15,0,0,0-4.65-3.29,12.68,12.68,0,0,0-5.62-1.26,36.6,36.6,0,0,0-10.82,2A80.75,80.75,0,0,0,39.25,120a108.34,108.34,0,0,0-14.09,9,80.25,80.25,0,0,0-12.63,11.74A60,60,0,0,0,3.47,154.7,36.8,36.8,0,0,0,0,170.31a23.87,23.87,0,0,0,2,9.75,36.3,36.3,0,0,0,5.18,8.41,42.56,42.56,0,0,0,7.15,6.86,64,64,0,0,0,7.83,5.08,43.84,43.84,0,0,0,7.24,3.23,18.3,18.3,0,0,0,5.43,1.13A21.89,21.89,0,0,0,43.07,203a50,50,0,0,0,8.81-4.79,66.43,66.43,0,0,0,8.56-7A85.52,85.52,0,0,0,68,183a61.31,61.31,0,0,0,5.63-8.25c-.9,2.15-1.68,4.07-2.3,5.66a12.59,12.59,0,0,0-1.08,3.91,5.13,5.13,0,0,0,1.42,2.74,21.61,21.61,0,0,0,3.62,3.48,28.56,28.56,0,0,0,4.75,3,10.7,10.7,0,0,0,4.79,1.27q.49-1.67,2.06-5.38c1-2.48,2.27-5.25,3.67-8.31s2.94-6.32,4.6-9.75,3.3-6.67,4.9-9.74,3-5.77,4.35-8.12a47.49,47.49,0,0,1,3.13-5.09c.59-.52,1.13-.64,1.62-.34s.73,1.29.73,3a8.61,8.61,0,0,1-1.22,3.28c-.82,1.53-1.71,3.25-2.69,5.14s-1.88,3.85-2.7,5.87a15.16,15.16,0,0,0-1.22,5.58,5.27,5.27,0,0,0,.49,2.11,6.49,6.49,0,0,0,1.47,2.05,8.69,8.69,0,0,0,2.35,1.57,7.41,7.41,0,0,0,3.13.63,8,8,0,0,0,3.82-1.22,28.59,28.59,0,0,0,4.45-3.18c1-.86,2-1.91,3-2.92a28.08,28.08,0,0,0-.55,4.19c0,1.11.7,2.33,2.1,3.67a31.42,31.42,0,0,0,5,3.82c1.93,1.21,3.9,2.32,5.93,3.33s3.68,1.78,5,2.3a3.78,3.78,0,0,0,2,.59c.45,0,1.25-.82,2.39-2.45s2.47-3.72,4-6.27v.78a4.45,4.45,0,0,0,1.17,2.65,20.89,20.89,0,0,0,2.94,2.94,42.29,42.29,0,0,0,3.77,2.79c1.33.87,2.56,1.61,3.67,2.2A8.32,8.32,0,0,0,160,191.6a4.53,4.53,0,0,0,1.81.44c.32,0,1-.49,2-1.47s2.21-2.25,3.58-3.81,2.87-3.36,4.5-5.39c.86-1.06,1.72-2.2,2.59-3.31a6.25,6.25,0,0,0,2,3.07,46.85,46.85,0,0,0,4.89,4.11c1.83,1.34,3.57,2.49,5.24,3.48a9.15,9.15,0,0,0,3.28,1.46v-.09a.43.43,0,0,1,.19,0,.37.37,0,0,0,.2.05q.58,0,2.1-1.56a47.49,47.49,0,0,0,3.53-4.21q2-2.64,4.4-6t4.85-7q2.44-3.62,4.75-7.15t4.16-6.46q-2.07,7.25-5,15.82t-6.16,17.17a68.94,68.94,0,0,0-12.83,4.31A48.84,48.84,0,0,0,180.2,201a27.34,27.34,0,0,0-6.36,6.81,13.4,13.4,0,0,0-2.26,7.19q0,6.95,2,11.16a18,18,0,0,0,5,6.56,16.27,16.27,0,0,0,6.35,3.13,27.55,27.55,0,0,0,6.12.78c1.44,0,3-1,4.8-2.89a45,45,0,0,0,5.43-7.68q2.79-4.8,5.68-11.11t5.72-13.27A30.86,30.86,0,0,1,221.9,203a18,18,0,0,1,6,3.23,11.11,11.11,0,0,1,3.18,4.37,12.53,12.53,0,0,1,.93,4.54c0,.59.39.63,1.17.11a14.23,14.23,0,0,0,2.55-2.31,24.54,24.54,0,0,0,2.54-3.37,6.31,6.31,0,0,0,1.18-3.14,23.18,23.18,0,0,0-.93-6.45A17.63,17.63,0,0,0,235.65,194.2ZM81.09,155.83q-1.71,4.89-3.57,9.49l-.39,1a4.91,4.91,0,0,0,0-1.93,15,15,0,0,0-.68-2.45,11.42,11.42,0,0,0-1-2c-.36-.56-.7-.83-1-.83s-.82.7-1.86,2.11-2.48,3.16-4.31,5.28-4,4.4-6.6,6.85a60.82,60.82,0,0,1-8.76,6.85,52.36,52.36,0,0,1-10.77,5.29,37.28,37.28,0,0,1-12.63,2.1,34.28,34.28,0,0,1-3.67-.2,7.51,7.51,0,0,1-3.18-1,6.34,6.34,0,0,1-2.25-2.39,8.56,8.56,0,0,1-.88-4.21A46.06,46.06,0,0,1,28.34,152a49.88,49.88,0,0,1,9.4-9.74,59.68,59.68,0,0,1,11.1-7,55.55,55.55,0,0,1,11.7-4.17,50,50,0,0,1,11.21-1.37,5.43,5.43,0,0,1,2.79.78,8.82,8.82,0,0,1,2.4,2.16A29.09,29.09,0,0,1,72.58,138c-1.67,1.61-3.3,3-4.89,4.31s-3,2.32-4.26,3.13A18.42,18.42,0,0,0,61,147.21c-.26.27-.13.66.39,1.18a9,9,0,0,0,2.2,1.52,18.2,18.2,0,0,0,3,1.22,9.7,9.7,0,0,0,2.79.49,15.34,15.34,0,0,0,6.07-1.57,35,35,0,0,0,6.75-4c.76-.56,1.44-1.18,2.12-1.79-.13.6-.21,1.18-.36,1.79A99.44,99.44,0,0,1,81.09,155.83Zm69.69,3.92c-1.4,2.28-2.82,4.52-4.25,6.7s-2.83,4.24-4.16,6.17-2.53,3.53-3.57,4.84a14,14,0,0,1-2.5,2.6c-.62.42-1,.27-1-.45a35.73,35.73,0,0,1,1.13-4.75c.55-1.85,1.24-3.81,2-5.86s1.73-4.08,2.74-6.07a49.52,49.52,0,0,1,3.14-5.39,20.84,20.84,0,0,1,3.22-3.86,4.81,4.81,0,0,1,3.19-1.47,8.24,8.24,0,0,1,2.2.29,7.48,7.48,0,0,1,1.81.78Zm43,53.39c-1.3,2.9-2.49,5.42-3.57,7.54a43.43,43.43,0,0,1-2.89,5c-.84,1.2-1.5,1.81-2,1.81a1,1,0,0,1-.54-.3,3.08,3.08,0,0,1-.69-1.32,16.1,16.1,0,0,1-.58-3,44.31,44.31,0,0,1-.25-5.39q0-4.5,4-8.12a28.09,28.09,0,0,1,10.48-5.68Q195.77,208.78,193.8,213.14Z"/><path class="cls-3" d="M348.75,147.36a11.72,11.72,0,0,0-1-4.11,9.53,9.53,0,0,0-3.08-3.72,10.19,10.19,0,0,0-6.17-1.62,9.13,9.13,0,0,0-5.92,2.21,19.2,19.2,0,0,0-4.6,5.62,31.25,31.25,0,0,0-2.94,7.49,31.72,31.72,0,0,0-1,7.69,29.67,29.67,0,0,0,.49,4.94q.5,2.79,1.13,5.63t1.13,5.43a24.67,24.67,0,0,1,.48,4.36,5.64,5.64,0,0,1-.88,3.13,7.32,7.32,0,0,1-2.25,2.25,15.16,15.16,0,0,1-6.46,1.76c-4.35-.33-3.84-4.55-3.95-7.54a29.32,29.32,0,0,1,1.07-8.17,80.91,80.91,0,0,1,2.83-9.73q1.62-4.41,3.14-7.54t2.1-4.41c.39-.85,0-2-1.08-3.48a24.38,24.38,0,0,0-4.06-4.15,21.19,21.19,0,0,0-4.84-3c-1.63-.71-2.74-.78-3.33-.19-.92,0-2.07.79-3.48,2.39a53.26,53.26,0,0,0-4.55,6.22c-1.63,2.55-3.32,5.38-5.09,8.52s-3.42,6.23-5,9.3c.78-2,1.52-4,2.2-5.88s1.31-3.59,1.87-5.09,1-2.75,1.31-3.77a8.62,8.62,0,0,0,.5-2c0-.46-.58-1.18-1.72-2.15a30.81,30.81,0,0,0-3.91-2.84c-1.47-.92-2.91-1.73-4.31-2.45a8.15,8.15,0,0,0-2.89-1.08,41.89,41.89,0,0,1-1.56,6.07q-1.19,3.61-2.65,7.74t-3.08,8.36c-.22.57-.38,1-.59,1.59a23.45,23.45,0,0,1-2,1.3c-.52.2-1.06.42-1.62.68a11.12,11.12,0,0,1-1.91.69q2.46-5.39,2.26-7.93a13.83,13.83,0,0,0-1.18-4.55,10.23,10.23,0,0,0-2.1-3,8.51,8.51,0,0,0-2.64-1.77,16,16,0,0,0-2.89-.88c-.53-.45-1.46-1.19-2.79-2.2s-2.83-2-4.45-3a48.74,48.74,0,0,0-4.85-2.65,10,10,0,0,0-4-1.12q-3.72,0-7.63,3.18a31.28,31.28,0,0,0-6.95,8.17,44.16,44.16,0,0,0-4.75,11.16A33.45,33.45,0,0,0,228,175.41a10.18,10.18,0,0,0,2.15,4.74,31.52,31.52,0,0,0,4.75,5.14,33.57,33.57,0,0,0,5.87,4.16,11.68,11.68,0,0,0,5.53,1.71,13.79,13.79,0,0,0,6.17-1.51,28,28,0,0,0,5.82-4,38.52,38.52,0,0,0,5.19-5.58c1.6-2.09,3.05-4.17,4.36-6.26a26.57,26.57,0,0,0,6.07-1.51c-.73,2-1.36,3.83-1.87,5.37a14.94,14.94,0,0,0-.88,3.78A2.6,2.6,0,0,0,272,183a21.79,21.79,0,0,0,2.25,2c.92.71,1.91,1.43,3,2.15s2.1,1.37,3.08,2,1.84,1.06,2.59,1.42a4.63,4.63,0,0,0,1.52.54,32.75,32.75,0,0,1,2.5-5.58q2-3.83,4.8-8.62t6-10q3.18-5.19,6-9.5-1.56,4.91-3,10.19a95.78,95.78,0,0,0-2.16,10,41.56,41.56,0,0,0-.53,8.47c.13,2.47.78,4.3,1.95,5.47a29.72,29.72,0,0,0,7.59,5.88,27,27,0,0,0,6.46,2.44,28.87,28.87,0,0,0,8.47.5c3.9-.29,7.44-.6,10.37-1.77a23.1,23.1,0,0,0,7.25-4.4,18.17,18.17,0,0,0,4.25-5.73,13.73,13.73,0,0,0,1.42-5.73,16.52,16.52,0,0,0-.88-5.28c-.58-1.76-1.25-3.51-2-5.23s-1.42-3.44-2-5.15a15.1,15.1,0,0,1-.88-5,11.23,11.23,0,0,1,1.37-6.12,10.55,10.55,0,0,1,3-3.18,14.43,14.43,0,0,1,3-1.56c.91-.33,1.37-.72,1.37-1.18S348.81,148.7,348.75,147.36ZM254.69,177a37.83,37.83,0,0,1-3.38,4.31,19.05,19.05,0,0,1-3.42,3,6.12,6.12,0,0,1-3.28,1.12.77.77,0,0,1-.64-.34,3,3,0,0,1-.39-.84,4.16,4.16,0,0,1-.19-1,6.86,6.86,0,0,1-.06-.79,23.29,23.29,0,0,1,1.33-10,42.83,42.83,0,0,1,4.94-10,16.25,16.25,0,0,0,1.37,2.7,26.18,26.18,0,0,0,1.56,2.2,24.46,24.46,0,0,0,2.55,2.54,17.25,17.25,0,0,0,2.74,2C256.84,173.65,255.8,175.34,254.69,177Zm8.22-16.35a56.67,56.67,0,0,1-2.64,6.46,12.7,12.7,0,0,1-2-1.51,16.35,16.35,0,0,1-1.91-2.06,12.69,12.69,0,0,1-1.51-2.45,7.21,7.21,0,0,1-.74-2.59v-.93a2.56,2.56,0,0,1,.2-.93,20.77,20.77,0,0,1,5.38-4.6,5.77,5.77,0,0,1,2.5,1.08,4.34,4.34,0,0,1,1.51,3.13A10.86,10.86,0,0,1,262.91,160.62Z"/><text class="cls-4" transform="translate(101.72 209.71)">#EBEBEB</text><text class="cls-4" transform="translate(101.72 202.18)">#FF8A2A</text><text class="cls-4" transform="translate(101.72 217.23)">#37354D</text><path id="Path_387" data-name="Path 387" class="cls-1" d="M283.71,237.17a1.77,1.77,0,0,1,1.05.53,1.85,1.85,0,0,1,.7,1.68,3,3,0,0,1-.87,1.56c-.75.76-1.13,1.13-1.89,1.87a.62.62,0,0,1-.88,0h0l-4.05-4.22a.61.61,0,0,1,0-.86h0c.74-.72,1.11-1.08,1.83-1.8a1.66,1.66,0,0,1,2.64-.13,1.53,1.53,0,0,1,.43.72,1.5,1.5,0,0,1-.06.84,2.2,2.2,0,0,1,1.1-.19m-2.83-.54a.83.83,0,0,0-.57.27c-.47.48-.71.72-1.2,1.19l1.1,1.13,1.24-1.23a.77.77,0,0,0,.24-.53.7.7,0,0,0-.22-.55.83.83,0,0,0-.59-.28m3.25,2.76a.91.91,0,0,0-.33-.71.83.83,0,0,0-.78-.32,1.74,1.74,0,0,0-.69.44l-1.28,1.27,1.36,1.39c.55-.53.82-.8,1.36-1.34a1.09,1.09,0,0,0,.36-.73"/><path id="Path_388" data-name="Path 388" class="cls-1" d="M285.86,230.7c.33,1.44.49,2.17.79,3.63l1.82,1.67a.62.62,0,0,1,.2.43.57.57,0,0,1-.17.44.61.61,0,0,1-.43.21.6.6,0,0,1-.45-.16l-1.91-1.78c-1.41-.13-2.11-.2-3.5-.36a.74.74,0,0,1-.47-.2.54.54,0,0,1-.18-.45.7.7,0,0,1,.18-.44.6.6,0,0,1,.55-.17c1.21.16,1.81.23,3,.36-.25-1.16-.38-1.74-.66-2.89a.61.61,0,0,1,.12-.58.62.62,0,0,1,.42-.2.61.61,0,0,1,.45.16.72.72,0,0,1,.21.33"/><path id="Path_389" data-name="Path 389" class="cls-1" d="M293.61,228.38a3.35,3.35,0,0,1,.21,1.83,3.72,3.72,0,0,1-2.4,2.83,3.36,3.36,0,0,1-1.83.09,3.93,3.93,0,0,1-2.75-2.43,3.44,3.44,0,0,1-.18-1.8,3.56,3.56,0,0,1,2.29-2.71,3.49,3.49,0,0,1,1.81-.12,3.86,3.86,0,0,1,2.85,2.31m-3.11-1a2.21,2.21,0,0,0-1.17,0,2.09,2.09,0,0,0-1.44,1.69,2.13,2.13,0,0,0,.17,1.14,2.86,2.86,0,0,0,1.86,1.62,2.12,2.12,0,0,0,1.17,0,2.16,2.16,0,0,0,1.47-1.74,2.24,2.24,0,0,0-.17-1.17,2.84,2.84,0,0,0-1.9-1.56"/><path id="Path_390" data-name="Path 390" class="cls-1" d="M297.84,224.07a.59.59,0,0,1,.68.51.71.71,0,0,1-.14.47c-.84,1.11-1.26,1.66-2.12,2.74a.61.61,0,0,1-.86.14h0l-4.57-3.64a.55.55,0,0,1-.23-.42.66.66,0,0,1,.15-.48.59.59,0,0,1,.41-.23.6.6,0,0,1,.46.13l4.15,3.25c.68-.87,1-1.31,1.68-2.19a.71.71,0,0,1,.41-.27"/><path id="Path_391" data-name="Path 391" class="cls-1" d="M299.22,223.64a.59.59,0,0,1-.46-.14l-.13-.1a.56.56,0,0,1-.2-.77l.08-.1.08-.11a.56.56,0,0,1,.76-.23.41.41,0,0,1,.11.07l.14.1a.56.56,0,0,1,.19.77.39.39,0,0,1-.08.1l-.08.12a.68.68,0,0,1-.41.29"/><path id="Path_392" data-name="Path 392" class="cls-1" d="M298.52,215.84a.82.82,0,0,1,.89-.05.57.57,0,0,1,.24.33.4.4,0,0,1,0,.38.73.73,0,0,1-.19.2.88.88,0,0,1-.22.1,1,1,0,0,0-.21.09.91.91,0,0,0-.24.2,1.65,1.65,0,0,0-.22.24,1.62,1.62,0,0,0-.31,1.27,1.72,1.72,0,0,0,.75,1.07,1.63,1.63,0,0,0,1.25.32,1.48,1.48,0,0,0,1.06-.68,1.81,1.81,0,0,0,.33-.7,1.41,1.41,0,0,0,0-.2,1.94,1.94,0,0,1,0-.24.51.51,0,0,1,.1-.21.53.53,0,0,1,.36-.26.58.58,0,0,1,.43.1.6.6,0,0,1,.22.5,2.41,2.41,0,0,1-.16.84,4.21,4.21,0,0,1-.49.94,2.76,2.76,0,0,1-1.12,1,2.45,2.45,0,0,1-1.38.2,3.08,3.08,0,0,1-1.36-.56,3.14,3.14,0,0,1-1-1.13,2.57,2.57,0,0,1-.25-1.37,2.88,2.88,0,0,1,.5-1.35,3.28,3.28,0,0,1,1-1"/><path id="Path_393" data-name="Path 393" class="cls-1" d="M305.17,212.9a2.57,2.57,0,0,1,.29,1.42,3.12,3.12,0,0,1-1.58,2.46,2.56,2.56,0,0,1-1.4.32,3,3,0,0,1-2.42-1.61,2.78,2.78,0,0,1-.28-1.39,3.07,3.07,0,0,1,1.53-2.39,2.72,2.72,0,0,1,1.39-.33,3,3,0,0,1,2.47,1.52m-2.56-.3a1.67,1.67,0,0,0-.82.16,1.6,1.6,0,0,0-.85,1.34,1.58,1.58,0,0,0,.19.8,1.89,1.89,0,0,0,1.48,1,1.53,1.53,0,0,0,.81-.16,1.65,1.65,0,0,0,.88-1.36,1.6,1.6,0,0,0-.2-.81,1.79,1.79,0,0,0-.63-.65,1.77,1.77,0,0,0-.86-.29"/><path id="Path_394" data-name="Path 394" class="cls-1" d="M306.45,203.39a3.08,3.08,0,0,1,1.68.46l2.28,1.22a.54.54,0,0,1,.3.36.68.68,0,0,1-.43.81.59.59,0,0,1-.47-.05L307.53,205a1.47,1.47,0,0,0-.87-.22.89.89,0,0,0-.66.53,1.14,1.14,0,0,0,.44,1.66l2.25,1.28a.57.57,0,0,1,.29.37.67.67,0,0,1-.45.79.56.56,0,0,1-.47-.06L305.82,208a1.57,1.57,0,0,0-.87-.25.9.9,0,0,0-.67.52,1.19,1.19,0,0,0-.17.95,1.16,1.16,0,0,0,.56.72l2.23,1.33a.58.58,0,0,1,.28.38.67.67,0,0,1-.47.78.59.59,0,0,1-.47-.07l-3.57-2.17a.6.6,0,0,1-.28-.38.64.64,0,0,1,.46-.76.58.58,0,0,1,.46.08l.14.08a2.64,2.64,0,0,1-.17-.93,1.7,1.7,0,0,1,.26-.95,1.56,1.56,0,0,1,1.79-.88,2.4,2.4,0,0,1-.32-1,1.9,1.9,0,0,1,.23-1.12,1.59,1.59,0,0,1,1.21-1"/></g></g></svg>